<svg class="card-back_svg__card-back_svg__card-back_svg__card-back" width="250" height="350" viewBox="0 0 250 350" xmlns="http://www.w3.org/2000/svg"><title>cardback-tri</title><g fill="currentColor" fill-rule="evenodd"><path fill-opacity=".4" d="M105 115l40 30-40 30z"/><path fill="none" d="M65 145l40 30-40 30z"/><path fill-opacity=".3" d="M105 175l40 30-40 30z"/><path fill-opacity=".5" d="M105 175l-40-30 40-30z"/><path fill-opacity=".7" d="M145 205l-40-30 40-30z"/><path fill-opacity=".15" d="M105 235l-40-30 40-30z"/><path fill-opacity=".4" d="M185 115l40 30-40 30z"/><path fill="none" d="M145 145l40 30-40 30z"/><path fill-opacity=".3" d="M185 175l40 30-40 30z"/><path fill-opacity=".5" d="M185 175l-40-30 40-30z"/><path fill-opacity=".7" d="M225 205l-40-30 40-30z"/><path fill-opacity=".15" d="M185 235l-40-30 40-30z"/><path fill-opacity=".4" d="M225 25l40 30-40 30z"/><path fill="none" d="M185 55l40 30-40 30z"/><path fill-opacity=".3" d="M225 85l40 30-40 30z"/><path fill-opacity=".5" d="M225 85l-40-30 40-30z"/><path fill-opacity=".7" d="M265 115l-40-30 40-30z"/><path fill-opacity=".15" d="M225 145l-40-30 40-30z"/><path fill="none" d="M225 145l40 30-40 30z"/><path fill-opacity=".5" d="M265 175l-40-30 40-30z"/><path fill-opacity=".15" d="M265 235l-40-30 40-30z"/><path fill-opacity=".4" d="M225 205l40 30-40 30z"/><path fill="none" d="M185 235l40 30-40 30z"/><path fill-opacity=".3" d="M225 265l40 30-40 30z"/><path fill-opacity=".5" d="M225 265l-40-30 40-30z"/><path fill-opacity=".7" d="M265 295l-40-30 40-30z"/><path fill-opacity=".15" d="M225 325l-40-30 40-30z"/><path fill="none" d="M225 325l40 30-40 30z"/><path fill-opacity=".5" d="M265 355l-40-30 40-30z"/><path fill-opacity=".4" d="M185 295l40 30-40 30z"/><path fill="none" d="M145 325l40 30-40 30z"/><path fill-opacity=".5" d="M185 355l-40-30 40-30z"/><path fill-opacity=".7" d="M225 385l-40-30 40-30z"/><path fill-opacity=".4" d="M105 295l40 30-40 30z"/><path fill="none" d="M65 325l40 30-40 30z"/><path fill-opacity=".5" d="M105 355l-40-30 40-30z"/><path fill-opacity=".7" d="M145 385l-40-30 40-30z"/><path fill-opacity=".4" d="M145 205l40 30-40 30z"/><path fill="none" d="M105 235l40 30-40 30z"/><path fill-opacity=".3" d="M145 265l40 30-40 30z"/><path fill-opacity=".5" d="M145 265l-40-30 40-30z"/><path fill-opacity=".7" d="M185 295l-40-30 40-30z"/><path fill-opacity=".15" d="M145 325l-40-30 40-30z"/><path fill-opacity=".4" d="M65 25l40 30-40 30z"/><path fill="none" d="M25 55l40 30-40 30z"/><path fill-opacity=".3" d="M65 85l40 30-40 30z"/><path fill-opacity=".5" d="M65 85L25 55l40-30z"/><path fill-opacity=".7" d="M105 115L65 85l40-30z"/><path fill-opacity=".15" d="M65 145l-40-30 40-30z"/><g><path fill-opacity=".4" d="M65 205l40 30-40 30z"/><path fill="none" d="M25 235l40 30-40 30z"/><path fill-opacity=".3" d="M65 265l40 30-40 30z"/><path fill-opacity=".5" d="M65 265l-40-30 40-30z"/><path fill-opacity=".7" d="M105 295l-40-30 40-30z"/><path fill-opacity=".15" d="M65 325l-40-30 40-30z"/></g><g><path fill-opacity=".4" d="M25 295l40 30-40 30z"/><path fill="none" d="M-15 325l40 30-40 30z"/><path fill-opacity=".5" d="M25 355l-40-30 40-30z"/><path fill-opacity=".7" d="M65 385l-40-30 40-30z"/></g><g><path fill-opacity=".4" d="M-15 205l40 30-40 30z"/><path fill-opacity=".3" d="M-15 265l40 30-40 30z"/><path fill-opacity=".7" d="M25 295l-40-30 40-30z"/></g><g><path fill-opacity=".4" d="M-15 25l40 30-40 30z"/><path fill-opacity=".3" d="M-15 85l40 30-40 30z"/><path fill-opacity=".7" d="M25 115l-40-30 40-30z"/></g><g><path fill="none" d="M-15-35L25-5l-40 30z"/><path fill-opacity=".3" d="M25-5l40 30-40 30z"/><path fill-opacity=".7" d="M65 25L25-5l40-30z"/><path fill-opacity=".15" d="M25 55l-40-30L25-5z"/></g><g><path fill="none" d="M65-35l40 30-40 30z"/><path fill-opacity=".3" d="M105-5l40 30-40 30z"/><path fill-opacity=".7" d="M145 25L105-5l40-30z"/><path fill-opacity=".15" d="M105 55L65 25l40-30z"/></g><g><path fill="none" d="M145-35l40 30-40 30z"/><path fill-opacity=".3" d="M185-5l40 30-40 30z"/><path fill-opacity=".7" d="M225 25L185-5l40-30z"/><path fill-opacity=".15" d="M185 55l-40-30 40-30z"/></g><g><path fill-opacity=".4" d="M25 115l40 30-40 30z"/><path fill="none" d="M-15 145l40 30-40 30z"/><path fill-opacity=".3" d="M25 175l40 30-40 30z"/><path fill-opacity=".5" d="M25 175l-40-30 40-30z"/><path fill-opacity=".7" d="M65 205l-40-30 40-30z"/><path fill-opacity=".15" d="M25 235l-40-30 40-30z"/></g><g><path fill-opacity=".4" d="M145 25l40 30-40 30z"/><path fill="none" d="M105 55l40 30-40 30z"/><path fill-opacity=".3" d="M145 85l40 30-40 30z"/><path fill-opacity=".5" d="M145 85l-40-30 40-30z"/><path fill-opacity=".7" d="M185 115l-40-30 40-30z"/><path fill-opacity=".15" d="M145 145l-40-30 40-30z"/></g><g><path fill="none" d="M225-35l40 30-40 30z"/><path fill-opacity=".15" d="M265 55l-40-30 40-30z"/></g></g></svg>