<svg class="card-back_svg__card-back_svg__card-back_svg__card-back_svg__card-back" width="250" height="350" viewBox="0 0 250 350" xmlns="http://www.w3.org/2000/svg"><title>cardback-tri</title><g fill="currentColor" fill-rule="evenodd"><path fill-opacity=".4" d="m105 115 40 30-40 30z"/><path fill="none" d="m65 145 40 30-40 30z"/><path fill-opacity=".3" d="m105 175 40 30-40 30z"/><path fill-opacity=".5" d="m105 175-40-30 40-30z"/><path fill-opacity=".7" d="m145 205-40-30 40-30z"/><path fill-opacity=".15" d="m105 235-40-30 40-30z"/><path fill-opacity=".4" d="m185 115 40 30-40 30z"/><path fill="none" d="m145 145 40 30-40 30z"/><path fill-opacity=".3" d="m185 175 40 30-40 30z"/><path fill-opacity=".5" d="m185 175-40-30 40-30z"/><path fill-opacity=".7" d="m225 205-40-30 40-30z"/><path fill-opacity=".15" d="m185 235-40-30 40-30z"/><path fill-opacity=".4" d="m225 25 40 30-40 30z"/><path fill="none" d="m185 55 40 30-40 30z"/><path fill-opacity=".3" d="m225 85 40 30-40 30z"/><path fill-opacity=".5" d="m225 85-40-30 40-30z"/><path fill-opacity=".7" d="m265 115-40-30 40-30z"/><path fill-opacity=".15" d="m225 145-40-30 40-30z"/><path fill="none" d="m225 145 40 30-40 30z"/><path fill-opacity=".5" d="m265 175-40-30 40-30z"/><path fill-opacity=".15" d="m265 235-40-30 40-30z"/><path fill-opacity=".4" d="m225 205 40 30-40 30z"/><path fill="none" d="m185 235 40 30-40 30z"/><path fill-opacity=".3" d="m225 265 40 30-40 30z"/><path fill-opacity=".5" d="m225 265-40-30 40-30z"/><path fill-opacity=".7" d="m265 295-40-30 40-30z"/><path fill-opacity=".15" d="m225 325-40-30 40-30z"/><path fill="none" d="m225 325 40 30-40 30z"/><path fill-opacity=".5" d="m265 355-40-30 40-30z"/><path fill-opacity=".4" d="m185 295 40 30-40 30z"/><path fill="none" d="m145 325 40 30-40 30z"/><path fill-opacity=".5" d="m185 355-40-30 40-30z"/><path fill-opacity=".7" d="m225 385-40-30 40-30z"/><path fill-opacity=".4" d="m105 295 40 30-40 30z"/><path fill="none" d="m65 325 40 30-40 30z"/><path fill-opacity=".5" d="m105 355-40-30 40-30z"/><path fill-opacity=".7" d="m145 385-40-30 40-30z"/><path fill-opacity=".4" d="m145 205 40 30-40 30z"/><path fill="none" d="m105 235 40 30-40 30z"/><path fill-opacity=".3" d="m145 265 40 30-40 30z"/><path fill-opacity=".5" d="m145 265-40-30 40-30z"/><path fill-opacity=".7" d="m185 295-40-30 40-30z"/><path fill-opacity=".15" d="m145 325-40-30 40-30z"/><path fill-opacity=".4" d="m65 25 40 30-40 30z"/><path fill="none" d="m25 55 40 30-40 30z"/><path fill-opacity=".3" d="m65 85 40 30-40 30z"/><path fill-opacity=".5" d="M65 85 25 55l40-30z"/><path fill-opacity=".7" d="M105 115 65 85l40-30z"/><path fill-opacity=".15" d="m65 145-40-30 40-30z"/><path fill-opacity=".4" d="m65 205 40 30-40 30z"/><path fill="none" d="m25 235 40 30-40 30z"/><path fill-opacity=".3" d="m65 265 40 30-40 30z"/><path fill-opacity=".5" d="m65 265-40-30 40-30z"/><path fill-opacity=".7" d="m105 295-40-30 40-30z"/><path fill-opacity=".15" d="m65 325-40-30 40-30z"/><path fill-opacity=".4" d="m25 295 40 30-40 30z"/><path fill="none" d="m-15 325 40 30-40 30z"/><path fill-opacity=".5" d="m25 355-40-30 40-30z"/><path fill-opacity=".7" d="m65 385-40-30 40-30z"/><path fill-opacity=".4" d="m-15 205 40 30-40 30z"/><path fill-opacity=".3" d="m-15 265 40 30-40 30z"/><path fill-opacity=".7" d="m25 295-40-30 40-30z"/><path fill-opacity=".4" d="m-15 25 40 30-40 30z"/><path fill-opacity=".3" d="m-15 85 40 30-40 30z"/><path fill-opacity=".7" d="m25 115-40-30 40-30z"/><path fill="none" d="M-15-35 25-5l-40 30z"/><path fill-opacity=".3" d="m25-5 40 30-40 30z"/><path fill-opacity=".7" d="M65 25 25-5l40-30z"/><path fill-opacity=".15" d="m25 55-40-30L25-5z"/><path fill="none" d="m65-35 40 30-40 30z"/><path fill-opacity=".3" d="m105-5 40 30-40 30z"/><path fill-opacity=".7" d="M145 25 105-5l40-30z"/><path fill-opacity=".15" d="M105 55 65 25l40-30z"/><path fill="none" d="m145-35 40 30-40 30z"/><path fill-opacity=".3" d="m185-5 40 30-40 30z"/><path fill-opacity=".7" d="M225 25 185-5l40-30z"/><path fill-opacity=".15" d="m185 55-40-30 40-30z"/><path fill-opacity=".4" d="m25 115 40 30-40 30z"/><path fill="none" d="m-15 145 40 30-40 30z"/><path fill-opacity=".3" d="m25 175 40 30-40 30z"/><path fill-opacity=".5" d="m25 175-40-30 40-30z"/><path fill-opacity=".7" d="m65 205-40-30 40-30z"/><path fill-opacity=".15" d="m25 235-40-30 40-30z"/><path fill-opacity=".4" d="m145 25 40 30-40 30z"/><path fill="none" d="m105 55 40 30-40 30z"/><path fill-opacity=".3" d="m145 85 40 30-40 30z"/><path fill-opacity=".5" d="m145 85-40-30 40-30z"/><path fill-opacity=".7" d="m185 115-40-30 40-30z"/><path fill-opacity=".15" d="m145 145-40-30 40-30z"/><path fill="none" d="m225-35 40 30-40 30z"/><path fill-opacity=".15" d="m265 55-40-30 40-30z"/></g></svg>