<svg width="150" height="150" viewBox="0 0 150 150" xmlns="http://www.w3.org/2000/svg" xmlns:xlink="http://www.w3.org/1999/xlink"><defs><path id="chip100_svg__c" d="M64-29h25v160H64z"/><path id="chip100_svg__d" d="M64-24h25v150H64z"/><path id="chip100_svg__e" d="M64-29h25v160H64z"/><path d="M55 110C24.624 110 0 85.376 0 55S24.624 0 55 0s55 24.624 55 55-24.624 55-55 55zm0-5c27.614 0 50-22.386 50-50S82.614 5 55 5 5 27.386 5 55s22.386 50 50 50z" id="chip100_svg__f"/><filter x="-1.8%" y="-1.8%" width="103.6%" height="103.6%" filterUnits="objectBoundingBox" id="chip100_svg__g"><feGaussianBlur stdDeviation="1.5" in="SourceAlpha" result="shadowBlurInner1"/><feOffset dy="1" in="shadowBlurInner1" result="shadowOffsetInner1"/><feComposite in="shadowOffsetInner1" in2="SourceAlpha" operator="arithmetic" k2="-1" k3="1" result="shadowInnerInner1"/><feColorMatrix values="0 0 0 0 0 0 0 0 0 0 0 0 0 0 0 0 0 0 0.3 0" in="shadowInnerInner1"/></filter><circle id="chip100_svg__a" cx="75" cy="75" r="75"/></defs><g fill="none" fill-rule="evenodd"><mask id="chip100_svg__b" fill="#fff"><use xlink:href="#chip100_svg__a"/></mask><use fill="#242424" xlink:href="#chip100_svg__a"/><g mask="url(#chip100_svg__b)"><g transform="translate(-1 24)" fill="#FFF"><use transform="rotate(120 76.5 51)" xlink:href="#chip100_svg__c"/><use xlink:href="#chip100_svg__d"/><use transform="rotate(60 76.5 51)" xlink:href="#chip100_svg__e"/></g></g><g transform="translate(20 20)"><mask id="chip100_svg__h" fill="#fff"><use xlink:href="#chip100_svg__f"/></mask><use fill="#242424" xlink:href="#chip100_svg__f"/><use fill="#000" filter="url(#chip100_svg__g)" xlink:href="#chip100_svg__f"/><g mask="url(#chip100_svg__h)" fill="#FFF"><path d="M48-5h15v120H48z"/><path d="M79.005-.712l12.99 7.5-60 103.924-12.99-7.5z"/><path d="M103.712 18.505l7.5 12.99-103.924 60-7.5-12.99z"/><path d="M115.5 47.5v15h-120v-15z"/><path d="M111.212 78.505l-7.5 12.99-103.924-60 7.5-12.99z"/><path d="M91.995 103.212l-12.99 7.5-60-103.924 12.99-7.5z"/></g><circle fill="#242424" cx="55" cy="55" r="50"/></g><g><g fill="#FFF"><path d="M103.75 25.57s-.33-3.137-.995-6.986c-.445-2.575-.517-5.127.312-6.81.946-1.925 3.188-3.108 5.357-1.976 2.168 1.131 2.15 3.146 1.776 4.6 1.073-1.05 2.808-2.073 4.872-.762 2.064 1.312 2.16 3.846.968 5.627-1.044 1.56-3.29 2.773-5.743 3.676-3.666 1.348-6.547 2.63-6.547 2.63zM38.25 139.019c-.066-3.747-.264-7.466-1.13-11.044 3.532-1.04 6.852-2.728 10.13-4.545.066 3.747.264 7.466 1.13 11.045-3.532 1.04-6.852 2.728-10.13 4.544z"/></g><path d="M38.75 10.847c-.781 5.832-2.769 10.076-1.006 13.256.57 1.03 2.176 2.413 4.266 1.65 1.355-.498 2.527-2.383 1.499-4.245-.217-.364.22-.604.506-.1.781 1.487 1.252 3.47 1.197 5.338l4.076-2.353c-1.645-.886-3.127-2.286-4.024-3.705-.294-.5.133-.76.339-.39 1.099 1.822 3.318 1.75 4.425.825 1.707-1.428 1.312-3.51.705-4.52-1.873-3.116-6.542-3.516-11.983-5.756zM111.014 130.758c-.567-.184-.73-.384.115-.38 2.181.078 4.872-2.354 3.259-5.511-1.987-3.89-8.253-1.724-6.992 2.904.189.457-.185.66-.443.006-.846-1.688-1.183-3.529-1.294-5.449l-3.818 2.205c1.607 1.056 3.033 2.268 4.072 3.845.436.55.074.772-.227.38-3.377-3.405-8.386.938-6.01 4.603 1.926 2.975 5.378 1.862 6.401-.066.42-.733.51-.493.387.09-.86 4.003 2.535 6.558 5.785 4.769 3.177-1.922 2.662-6.14-1.235-7.396z" fill="#FFF"/></g><path d="M46.831 56.63v36.74H38.34V63.453H31V56.63h15.831zM68.316 94c-3.04 0-5.749-.752-8.125-2.257-2.377-1.505-4.238-3.683-5.583-6.534C53.262 82.357 52.59 78.954 52.59 75c0-3.954.672-7.357 2.018-10.209 1.345-2.851 3.206-5.03 5.583-6.534C62.567 56.752 65.276 56 68.316 56s5.75.752 8.126 2.257c2.376 1.505 4.237 3.683 5.583 6.534 1.345 2.852 2.018 6.255 2.018 10.209 0 3.954-.673 7.357-2.018 10.209-1.346 2.851-3.207 5.03-5.583 6.534C74.065 93.248 71.357 94 68.316 94zm0-7.19c2.237 0 3.993-.963 5.269-2.887 1.275-1.925 1.913-4.899 1.913-8.923s-.638-6.998-1.913-8.923c-1.276-1.924-3.032-2.886-5.269-2.886-2.202 0-3.94.962-5.216 2.886-1.275 1.925-1.913 4.899-1.913 8.923s.638 6.998 1.913 8.923c1.276 1.924 3.014 2.886 5.216 2.886zM103.273 94c-3.04 0-5.749-.752-8.125-2.257-2.376-1.505-4.237-3.683-5.583-6.534-1.345-2.852-2.018-6.255-2.018-10.209 0-3.954.673-7.357 2.018-10.209 1.346-2.851 3.207-5.03 5.583-6.534 2.376-1.505 5.085-2.257 8.125-2.257s5.75.752 8.126 2.257c2.376 1.505 4.237 3.683 5.583 6.534C118.327 67.643 119 71.046 119 75c0 3.954-.673 7.357-2.018 10.209-1.346 2.851-3.207 5.03-5.583 6.534-2.377 1.505-5.085 2.257-8.126 2.257zm0-7.19c2.237 0 3.993-.963 5.269-2.887 1.275-1.925 1.913-4.899 1.913-8.923s-.638-6.998-1.913-8.923c-1.276-1.924-3.032-2.886-5.269-2.886-2.201 0-3.94.962-5.216 2.886-1.275 1.925-1.913 4.899-1.913 8.923s.638 6.998 1.913 8.923c1.276 1.924 3.015 2.886 5.216 2.886z" fill="#FAD338"/></g></svg>