<svg width="150" height="150" viewBox="0 0 150 150" xmlns="http://www.w3.org/2000/svg" xmlns:xlink="http://www.w3.org/1999/xlink"><defs><path id="chip25_svg__c" d="M64-29h25v160H64z"/><path id="chip25_svg__d" d="M64-24h25v150H64z"/><path id="chip25_svg__e" d="M64-29h25v160H64z"/><path d="M55 110C24.624 110 0 85.376 0 55S24.624 0 55 0s55 24.624 55 55-24.624 55-55 55zm0-5c27.614 0 50-22.386 50-50S82.614 5 55 5 5 27.386 5 55s22.386 50 50 50z" id="chip25_svg__f"/><filter x="-1.8%" y="-1.8%" width="103.6%" height="103.6%" filterUnits="objectBoundingBox" id="chip25_svg__g"><feGaussianBlur stdDeviation="1.5" in="SourceAlpha" result="shadowBlurInner1"/><feOffset dy="1" in="shadowBlurInner1" result="shadowOffsetInner1"/><feComposite in="shadowOffsetInner1" in2="SourceAlpha" operator="arithmetic" k2="-1" k3="1" result="shadowInnerInner1"/><feColorMatrix values="0 0 0 0 0 0 0 0 0 0 0 0 0 0 0 0 0 0 0.3 0" in="shadowInnerInner1"/></filter><circle id="chip25_svg__a" cx="75" cy="75" r="75"/></defs><g fill="none" fill-rule="evenodd"><mask id="chip25_svg__b" fill="#fff"><use xlink:href="#chip25_svg__a"/></mask><use fill="#618A48" xlink:href="#chip25_svg__a"/><g mask="url(#chip25_svg__b)"><g transform="translate(-1 24)" fill="#FFF"><use transform="rotate(120 76.5 51)" xlink:href="#chip25_svg__c"/><use xlink:href="#chip25_svg__d"/><use transform="rotate(60 76.5 51)" xlink:href="#chip25_svg__e"/></g></g><g transform="translate(20 20)"><mask id="chip25_svg__h" fill="#fff"><use xlink:href="#chip25_svg__f"/></mask><use fill="#618A48" xlink:href="#chip25_svg__f"/><use fill="#000" filter="url(#chip25_svg__g)" xlink:href="#chip25_svg__f"/><g mask="url(#chip25_svg__h)" fill="#FFF"><path d="M48-5h15v120H48z"/><path d="M79.005-.712l12.99 7.5-60 103.924-12.99-7.5z"/><path d="M103.712 18.505l7.5 12.99-103.924 60-7.5-12.99z"/><path d="M115.5 47.5v15h-120v-15z"/><path d="M111.212 78.505l-7.5 12.99-103.924-60 7.5-12.99z"/><path d="M91.995 103.212l-12.99 7.5-60-103.924 12.99-7.5z"/></g><circle fill="#618A48" cx="55" cy="55" r="50"/></g><g><g fill="#FFF"><path d="M103.75 25.57s-.33-3.137-.995-6.986c-.445-2.575-.517-5.127.312-6.81.946-1.925 3.188-3.108 5.357-1.976 2.168 1.131 2.15 3.146 1.776 4.6 1.073-1.05 2.808-2.073 4.872-.762 2.064 1.312 2.16 3.846.968 5.627-1.044 1.56-3.29 2.773-5.743 3.676-3.666 1.348-6.547 2.63-6.547 2.63zM38.25 139.019c-.066-3.747-.264-7.466-1.13-11.044 3.532-1.04 6.852-2.728 10.13-4.545.066 3.747.264 7.466 1.13 11.045-3.532 1.04-6.852 2.728-10.13 4.544z"/></g><path d="M38.75 10.847c-.781 5.832-2.769 10.076-1.006 13.256.57 1.03 2.176 2.413 4.266 1.65 1.355-.498 2.527-2.383 1.499-4.245-.217-.364.22-.604.506-.1.781 1.487 1.252 3.47 1.197 5.338l4.076-2.353c-1.645-.886-3.127-2.286-4.024-3.705-.294-.5.133-.76.339-.39 1.099 1.822 3.318 1.75 4.425.825 1.707-1.428 1.312-3.51.705-4.52-1.873-3.116-6.542-3.516-11.983-5.756zM111.014 130.758c-.567-.184-.73-.384.115-.38 2.181.078 4.872-2.354 3.259-5.511-1.987-3.89-8.253-1.724-6.992 2.904.189.457-.185.66-.443.006-.846-1.688-1.183-3.529-1.294-5.449l-3.818 2.205c1.607 1.056 3.033 2.268 4.072 3.845.436.55.074.772-.227.38-3.377-3.405-8.386.938-6.01 4.603 1.926 2.975 5.378 1.862 6.401-.066.42-.733.51-.493.387.09-.86 4.003 2.535 6.558 5.785 4.769 3.177-1.922 2.662-6.14-1.235-7.396z" fill="#FFF"/></g><path d="M74.712 90.055v9.116H38.208V91.92L56.84 74.31c1.978-1.888 3.312-3.511 4.002-4.87.69-1.358 1.035-2.704 1.035-4.04 0-1.933-.656-3.418-1.967-4.454-1.31-1.036-3.231-1.554-5.762-1.554-2.116 0-4.025.403-5.727 1.209s-3.128 2.014-4.278 3.626L36 58.977c1.886-2.808 4.485-5.006 7.798-6.594C47.11 50.794 50.905 50 55.183 50c3.589 0 6.728.587 9.42 1.761 2.69 1.174 4.784 2.832 6.28 4.972 1.494 2.141 2.242 4.662 2.242 7.563 0 2.624-.552 5.087-1.656 7.39-1.104 2.301-3.244 4.925-6.418 7.872l-11.11 10.497h20.77zm20.346-21.063c6.808 0 11.834 1.358 15.077 4.074C113.378 75.783 115 79.42 115 83.978c0 2.947-.736 5.628-2.208 8.045-1.472 2.418-3.715 4.351-6.728 5.802C103.05 99.275 99.336 100 94.92 100c-3.405 0-6.751-.449-10.04-1.347-3.29-.897-6.085-2.175-8.385-3.833l4.416-8.563c1.84 1.381 3.957 2.452 6.349 3.211a24.25 24.25 0 007.383 1.14c2.807 0 5.015-.553 6.625-1.658 1.61-1.105 2.415-2.647 2.415-4.627 0-2.072-.84-3.637-2.519-4.696-1.679-1.059-4.588-1.588-8.729-1.588H80.083l2.485-27.21h29.465v8.978h-20.15l-.759 9.185h3.934z" fill="#FAD338"/></g></svg>