<?xml version="1.0" encoding="UTF-8"?>
<svg width="100px" height="100px" viewBox="0 0 100 100" version="1.1" xmlns="http://www.w3.org/2000/svg" xmlns:xlink="http://www.w3.org/1999/xlink">
    <title>clubs</title>
    <g id="suit-clubs" stroke="none" stroke-width="1" fill="none" fill-rule="evenodd">
        <path d="M64.7674419,100 C59.5348837,99.3135011 55,99.0846682 49.4186047,99.0846682 C43.6046512,99.0846682 39.6511628,99.3135011 35.1162791,100 C40.5813953,92.3340961 42.3255814,88.9016018 44.0697674,83.409611 C45.5813953,78.4897025 46.3953488,71.395881 46.3953488,63.6155606 C46.3953488,61.8993135 46.0465116,61.0983982 45.2325581,61.0983982 C44.3023256,61.0983982 44.3023256,61.2128146 43.4883721,65.4462243 C42.6744186,69.6796339 40,74.02746 36.1627907,77.5743707 C32.3255814,81.2356979 27.3255814,83.0663616 21.3953488,83.0663616 C9.76744186,83.0663616 0,72.8832952 0,60.7551487 C0,48.0549199 9.18604651,39.0160183 21.8604651,39.0160183 C27.5581395,39.0160183 31.3953488,40.389016 36.744186,44.6224256 C37.9069767,45.5377574 38.372093,45.7665904 38.8372093,45.7665904 C39.5348837,45.7665904 40.1162791,45.194508 40.1162791,44.5080092 C40.1162791,43.9359268 40.1162791,43.9359268 35.5813953,39.4736842 C31.0465116,35.1258581 28.0232558,27.9176201 28.0232558,21.7391304 C28.0232558,17.5057208 29.3023256,13.1578947 31.3953488,9.83981693 C35.2325581,4.00457666 42.5581395,0 49.7674419,0 C61.8604651,0 71.8604651,9.95423341 71.8604651,22.0823799 C71.8604651,28.0320366 69.7674419,33.409611 65.2325581,38.5583524 C63.9534884,40.1601831 62.5581395,41.5331808 61.2790698,42.5629291 C60.2325581,43.3638444 59.7674419,44.0503432 59.7674419,44.6224256 C59.7674419,45.194508 60.3488372,45.6521739 60.9302326,45.6521739 C61.627907,45.6521739 62.0930233,45.423341 63.255814,44.2791762 C67.4418605,40.389016 71.1627907,39.0160183 77.2093023,39.0160183 C90.1162791,39.0160183 100,48.0549199 100,59.8398169 C100,66.4759725 97.9069767,72.1967963 93.8372093,76.4302059 C89.7674419,80.6636156 83.6046512,83.2951945 77.7906977,83.2951945 C69.5348837,83.2951945 62.5581395,78.7185355 58.372093,70.7093822 C56.9767442,68.0778032 56.744186,67.5057208 55.8139535,62.7002288 C55.5813953,61.6704805 55.1162791,61.0983982 54.5348837,61.0983982 C53.6046512,61.0983982 53.4883721,61.784897 53.4883721,66.2471396 C53.4883721,72.9977117 54.8837209,81.9221968 56.627907,86.3844394 C58.372093,91.0755149 60.6976744,94.7368421 64.7674419,100 Z" fill="currentColor"></path>
    </g>
</svg>