<?xml version="1.0" encoding="UTF-8"?>
<svg width="100px" height="100px" viewBox="0 0 100 100" version="1.1" xmlns="http://www.w3.org/2000/svg" xmlns:xlink="http://www.w3.org/1999/xlink">
    <title>hearts</title>
    <g id="suit-hearts" stroke="none" stroke-width="1" fill="none" fill-rule="evenodd">
        <path d="M50,100 C28.6600496,79.7714286 26.426799,77.4857143 18.2382134,67.4285714 C6.07940447,52.6857143 0,39.4285714 0,28.2285714 C0,21.6 2.3573201,14.5142857 6.20347395,9.48571429 C11.1662531,3.08571429 17.9900744,0 27.2952854,0 C32.630273,0 36.6004963,1.02857143 39.8263027,3.08571429 C44.044665,5.82857143 47.2704715,10.6285714 48.2630273,15.7714286 C49.1315136,19.5428571 49.2555831,19.8857143 50,19.8857143 C50.7444169,19.8857143 51.1166253,19.2 51.7369727,15.7714286 C52.853598,10.1714286 56.4516129,5.02857143 61.0421836,2.62857143 C64.0198511,1.14285714 69.2307692,0 73.6972705,0 C78.9081886,0 84.1191067,1.6 88.4615385,4.34285714 C96.0297767,9.14285714 100,17.4857143 100,28.4571429 C100,37.0285714 97.7667494,44.2285714 92.4317618,52.9142857 C86.2282878,63.0857143 78.2878412,72.5714286 66.1290323,84.3428571 C52.9776675,97.1428571 52.9776675,97.1428571 50,100 Z" fill="currentColor"></path>
    </g>
</svg>