<?xml version="1.0" encoding="UTF-8"?>
<svg width="250px" height="350px" viewBox="0 0 250 350" version="1.1" xmlns="http://www.w3.org/2000/svg" xmlns:xlink="http://www.w3.org/1999/xlink">
    <!-- Generator: Sketch 52.6 (67491) - http://www.bohemiancoding.com/sketch -->
    <title>jack</title>
    <desc>Created with Sketch.</desc>
    <g id="jack" stroke="none" stroke-width="1" fill="none" fill-rule="evenodd">
        <g id="Group" transform="translate(153.000000, -97.000000)" fill="hsl(213, 80%, 37%)">
            <polygon id="Star-Copy-6" style="mix-blend-mode: multiply;" points="97.4117647 131.505882 28.5312453 166.292284 63.3176471 97.4117647 28.5312453 28.5312453 97.4117647 63.3176471 166.292284 28.5312453 131.505882 97.4117647 166.292284 166.292284"></polygon>
            <polygon id="Star-Copy-17" style="mix-blend-mode: multiply;" transform="translate(97.411765, 97.411765) rotate(-45.000000) translate(-97.411765, -97.411765) " points="97.4117647 131.505882 28.5312453 166.292284 63.3176471 97.4117647 28.5312453 28.5312453 97.4117647 63.3176471 166.292284 28.5312453 131.505882 97.4117647 166.292284 166.292284"></polygon>
        </g>
        <g id="Group-2" transform="translate(-97.000000, 253.000000)" fill="hsl(213, 80%, 37%)">
            <polygon id="Star-Copy-7" style="mix-blend-mode: multiply;" points="97.4117647 131.505882 28.5312453 166.292284 63.3176471 97.4117647 28.5312453 28.5312453 97.4117647 63.3176471 166.292284 28.5312453 131.505882 97.4117647 166.292284 166.292284"></polygon>
            <polygon id="Star-Copy-18" style="mix-blend-mode: multiply;" transform="translate(97.411765, 97.411765) rotate(-45.000000) translate(-97.411765, -97.411765) " points="97.4117647 131.505882 28.5312453 166.292284 63.3176471 97.4117647 28.5312453 28.5312453 97.4117647 63.3176471 166.292284 28.5312453 131.505882 97.4117647 166.292284 166.292284"></polygon>
        </g>
    </g>
</svg>