<?xml version="1.0" encoding="UTF-8"?>
<svg class="card-face" width="250px" height="350px" viewBox="0 0 250 350" version="1.1" preserveAspectRatio="none" xmlns="http://www.w3.org/2000/svg" xmlns:xlink="http://www.w3.org/1999/xlink">
    <title>king</title>
    <g id="king" stroke="none" stroke-width="1" fill="none" fill-rule="evenodd">
        <g id="Group" transform="translate(125.000000, -125.000000)" fill="currentColor">
            <polygon id="Star-Copy-9" style="mix-blend-mode: multiply;" points="124.886878 168.408043 36.5785196 212.955935 81.1764706 124.746699 36.5785196 36.5374621 124.886878 81.0853541 213.195236 36.5374621 168.597285 124.746699 213.195236 212.955935"></polygon>
            <polygon id="Star-Copy-10" style="mix-blend-mode: multiply;" transform="translate(125.566304, 125.425362) rotate(-24.000000) translate(-125.566304, -125.425362) " points="125.584534 169.094823 37.3111745 213.614166 81.8640131 125.407132 37.2375127 37.1628963 125.548073 81.7559007 213.821433 37.236558 169.268594 125.443592 213.895095 213.687827"></polygon>
            <polygon id="Star-Copy-18" style="mix-blend-mode: multiply;" transform="translate(124.886878, 126.027311) rotate(-45.000000) translate(-124.886878, -126.027311) " points="124.911409 169.713187 36.6776413 214.236547 81.2010019 126.00278 36.5785196 37.7189527 124.862346 82.341435 213.096114 37.8180744 168.572754 126.051842 213.195236 214.335669"></polygon>
        </g>
        <g id="Group-Copy" transform="translate(-126.000000, 224.000000)" fill="currentColor">
            <polygon id="Star-Copy-9" style="mix-blend-mode: multiply;" points="124.886878 168.408043 36.5785196 212.955935 81.1764706 124.746699 36.5785196 36.5374621 124.886878 81.0853541 213.195236 36.5374621 168.597285 124.746699 213.195236 212.955935"></polygon>
            <polygon id="Star-Copy-10" style="mix-blend-mode: multiply;" transform="translate(125.566304, 125.425362) rotate(-24.000000) translate(-125.566304, -125.425362) " points="125.584534 169.094823 37.3111745 213.614166 81.8640131 125.407132 37.2375127 37.1628963 125.548073 81.7559007 213.821433 37.236558 169.268594 125.443592 213.895095 213.687827"></polygon>
            <polygon id="Star-Copy-18" style="mix-blend-mode: multiply;" transform="translate(124.886878, 126.027311) rotate(-45.000000) translate(-124.886878, -126.027311) " points="124.911409 169.713187 36.6776413 214.236547 81.2010019 126.00278 36.5785196 37.7189527 124.862346 82.341435 213.096114 37.8180744 168.572754 126.051842 213.195236 214.335669"></polygon>
        </g>
    </g>
</svg>