<?xml version="1.0" encoding="UTF-8"?>
<svg width="250px" height="350px" viewBox="0 0 250 350" version="1.1" xmlns="http://www.w3.org/2000/svg" xmlns:xlink="http://www.w3.org/1999/xlink">
    <!-- Generator: Sketch 52.6 (67491) - http://www.bohemiancoding.com/sketch -->
    <title>king</title>
    <desc>Created with Sketch.</desc>
    <g id="king" stroke="none" stroke-width="1" fill="none" fill-rule="evenodd">
        <g id="Group-5" transform="translate(153.000000, -99.000000)" fill="hsl(213, 80%, 37%)">
            <polygon id="Star-Copy-11" style="mix-blend-mode: multiply;" points="97.4117647 131.910708 28.5312453 166.69711 63.3176471 97.8165906 28.5312453 28.9360712 97.4117647 63.722473 166.292284 28.9360712 131.505882 97.8165906 166.292284 166.69711"></polygon>
            <polygon id="Star-Copy-12" style="mix-blend-mode: multiply;" transform="translate(97.941717, 98.346543) rotate(-24.000000) translate(-97.941717, -98.346543) " points="97.9417168 132.44066 29.0611974 167.227062 63.8475992 98.3465428 29.0611974 29.4660234 97.9417168 64.2524251 166.822236 29.4660234 132.035834 98.3465428 166.822236 167.227062"></polygon>
            <polygon id="Star-Copy-19" style="mix-blend-mode: multiply;" transform="translate(97.941717, 98.346543) rotate(24.000000) translate(-97.941717, -98.346543) " points="97.9417168 132.44066 29.0611974 167.227062 63.8475992 98.3465428 29.0611974 29.4660234 97.9417168 64.2524251 166.822236 29.4660234 132.035834 98.3465428 166.822236 167.227062"></polygon>
            <polygon id="Star-Copy-20" style="mix-blend-mode: multiply;" transform="translate(97.411765, 98.816591) rotate(-45.000000) translate(-97.411765, -98.816591) " points="97.4117647 132.910708 28.5312453 167.69711 63.3176471 98.8165906 28.5312453 29.9360712 97.4117647 64.722473 166.292284 29.9360712 131.505882 98.8165906 166.292284 167.69711"></polygon>
        </g>
        <g id="Group-5-Copy" transform="translate(-98.000000, 252.000000)" fill="hsl(213, 80%, 37%)">
            <polygon id="Star-Copy-11" style="mix-blend-mode: multiply;" points="97.4117647 131.910708 28.5312453 166.69711 63.3176471 97.8165906 28.5312453 28.9360712 97.4117647 63.722473 166.292284 28.9360712 131.505882 97.8165906 166.292284 166.69711"></polygon>
            <polygon id="Star-Copy-12" style="mix-blend-mode: multiply;" transform="translate(97.941717, 98.346543) rotate(-24.000000) translate(-97.941717, -98.346543) " points="97.9417168 132.44066 29.0611974 167.227062 63.8475992 98.3465428 29.0611974 29.4660234 97.9417168 64.2524251 166.822236 29.4660234 132.035834 98.3465428 166.822236 167.227062"></polygon>
            <polygon id="Star-Copy-19" style="mix-blend-mode: multiply;" transform="translate(97.941717, 98.346543) rotate(24.000000) translate(-97.941717, -98.346543) " points="97.9417168 132.44066 29.0611974 167.227062 63.8475992 98.3465428 29.0611974 29.4660234 97.9417168 64.2524251 166.822236 29.4660234 132.035834 98.3465428 166.822236 167.227062"></polygon>
            <polygon id="Star-Copy-20" style="mix-blend-mode: multiply;" transform="translate(97.411765, 98.816591) rotate(-45.000000) translate(-97.411765, -98.816591) " points="97.4117647 132.910708 28.5312453 167.69711 63.3176471 98.8165906 28.5312453 29.9360712 97.4117647 64.722473 166.292284 29.9360712 131.505882 98.8165906 166.292284 167.69711"></polygon>
        </g>
    </g>
</svg>