<?xml version="1.0" encoding="UTF-8"?>
<svg width="420px" height="300px" viewBox="0 0 420 300" version="1.1" xmlns="http://www.w3.org/2000/svg" xmlns:xlink="http://www.w3.org/1999/xlink">
    <title>Jacks or Better!</title>
    <defs>
        <rect id="path-1" x="0" y="0" width="121.470937" height="169.876543" rx="4.97777778"></rect>
        <filter x="-25.1%" y="-13.8%" width="150.2%" height="135.9%" filterUnits="objectBoundingBox" id="filter-2">
            <feOffset dx="0" dy="7" in="SourceAlpha" result="shadowOffsetOuter1"></feOffset>
            <feGaussianBlur stdDeviation="9" in="shadowOffsetOuter1" result="shadowBlurOuter1"></feGaussianBlur>
            <feComposite in="shadowBlurOuter1" in2="SourceAlpha" operator="out" result="shadowBlurOuter1"></feComposite>
            <feColorMatrix values="0 0 0 0 0   0 0 0 0 0   0 0 0 0 0  0 0 0 0.3 0" type="matrix" in="shadowBlurOuter1" result="shadowMatrixOuter1"></feColorMatrix>
            <feOffset dx="0" dy="7" in="SourceAlpha" result="shadowOffsetOuter2"></feOffset>
            <feGaussianBlur stdDeviation="3.5" in="shadowOffsetOuter2" result="shadowBlurOuter2"></feGaussianBlur>
            <feComposite in="shadowBlurOuter2" in2="SourceAlpha" operator="out" result="shadowBlurOuter2"></feComposite>
            <feColorMatrix values="0 0 0 0 0   0 0 0 0 0   0 0 0 0 0  0 0 0 0.3 0" type="matrix" in="shadowBlurOuter2" result="shadowMatrixOuter2"></feColorMatrix>
            <feMerge>
                <feMergeNode in="shadowMatrixOuter1"></feMergeNode>
                <feMergeNode in="shadowMatrixOuter2"></feMergeNode>
            </feMerge>
        </filter>
        <rect id="path-3" x="0" y="0" width="121.470937" height="169.876543" rx="4.97777778"></rect>
        <filter x="-25.1%" y="-13.8%" width="150.2%" height="135.9%" filterUnits="objectBoundingBox" id="filter-4">
            <feOffset dx="0" dy="7" in="SourceAlpha" result="shadowOffsetOuter1"></feOffset>
            <feGaussianBlur stdDeviation="9" in="shadowOffsetOuter1" result="shadowBlurOuter1"></feGaussianBlur>
            <feComposite in="shadowBlurOuter1" in2="SourceAlpha" operator="out" result="shadowBlurOuter1"></feComposite>
            <feColorMatrix values="0 0 0 0 0   0 0 0 0 0   0 0 0 0 0  0 0 0 0.3 0" type="matrix" in="shadowBlurOuter1" result="shadowMatrixOuter1"></feColorMatrix>
            <feOffset dx="0" dy="7" in="SourceAlpha" result="shadowOffsetOuter2"></feOffset>
            <feGaussianBlur stdDeviation="3.5" in="shadowOffsetOuter2" result="shadowBlurOuter2"></feGaussianBlur>
            <feComposite in="shadowBlurOuter2" in2="SourceAlpha" operator="out" result="shadowBlurOuter2"></feComposite>
            <feColorMatrix values="0 0 0 0 0   0 0 0 0 0   0 0 0 0 0  0 0 0 0.3 0" type="matrix" in="shadowBlurOuter2" result="shadowMatrixOuter2"></feColorMatrix>
            <feMerge>
                <feMergeNode in="shadowMatrixOuter1"></feMergeNode>
                <feMergeNode in="shadowMatrixOuter2"></feMergeNode>
            </feMerge>
        </filter>
        <path d="M17.3983231,75.9571781 C15.8406204,75.6071763 14.4922543,75.1502365 13.3531842,74.5863448 C12.2141141,74.0224531 11.2259613,73.3807928 10.3886961,72.6613448 C9.55143097,71.9418967 8.85047528,71.1641267 8.28580806,70.3280114 C7.72114085,69.4918961 7.24410156,68.6169049 6.85467589,67.7030114 C6.21212354,66.3807826 5.83243921,65.014824 5.71561151,63.6050948 C5.59878381,62.1953655 5.65719679,60.5766317 5.89085219,58.7488448 C6.14397887,57.3488378 6.57720843,56.3182925 7.19055385,55.6571781 C7.80389928,54.9960637 8.81152307,54.9863416 10.2134555,55.6280114 C14.8865635,57.4946874 17.2814954,59.9835514 17.3983231,63.0946781 C17.5540934,65.0974659 17.753671,66.5460625 17.9970621,67.4405114 C18.2404531,68.3349603 18.8391861,68.8405108 19.793279,68.9571781 C20.6305442,68.9960672 21.4434581,68.3009352 22.232045,66.8717614 C23.020632,65.4425876 23.7946039,63.5419122 24.553984,61.1696781 C25.313364,58.797444 26.0337907,56.0898322 26.7152856,53.0467614 C27.3967805,50.0036907 28.0344555,46.8780275 28.6283296,43.6696781 C29.2222038,40.4613287 29.7722593,37.3016381 30.2785126,34.1905114 C30.784766,31.0793848 31.2131278,28.2696906 31.5636109,25.7613448 C31.7972663,24.5752277 32.2450991,23.8557905 32.9071227,23.6030114 C33.5691464,23.3502324 34.5134895,23.3793988 35.7401803,23.6905114 C36.9473999,24.0016241 38.2811628,24.4342587 39.741509,24.9884281 C41.2018553,25.5425975 42.5064117,26.1793967 43.6552174,26.8988448 C44.2393559,27.3071801 44.6920565,27.6571766 45.0133326,27.9488448 C45.3346088,28.2405129 45.5682607,28.5467598 45.7142953,28.8675948 C45.86033,29.1884297 45.9187429,29.5384262 45.889536,29.9175948 C45.8603291,30.2967633 45.7873129,30.7488421 45.6704852,31.2738448 C44.6774497,37.1266518 43.6211484,42.4592374 42.5015496,47.2717614 C41.3819508,52.0842855 40.1747494,56.323132 38.879909,59.9884281 C37.5850687,63.6537242 36.1831573,66.7259157 34.6741329,69.2050948 C33.1651084,71.6842738 31.5344129,73.4780059 29.7819974,74.5863448 C28.380065,75.4224601 26.7152952,76.0300929 24.7876382,76.4092614 C22.8599811,76.78843 20.3969007,76.6377371 17.3983231,75.9571781 Z M70.0429994,63.8821781 C67.0444218,64.2710689 64.0653601,64.6745371 61.1057251,65.0925948 C58.14609,65.5106524 55.5272417,66.021064 53.2491015,66.6238448 C52.4507789,68.1794081 51.7498232,69.6231437 51.1462134,70.9550948 C50.5426037,72.2870459 49.9584739,73.5946717 49.3938067,74.8780114 C49.0822662,75.5585704 48.6977141,75.9523164 48.2401389,76.0592614 C47.7825638,76.1662064 47.0962113,76.0641241 46.181061,75.7530114 C45.6553364,75.558566 45.0858099,75.3300961 44.4724644,75.0675948 C43.859119,74.8050934 43.2311795,74.5182908 42.5886272,74.2071781 C42.1018451,73.8960654 41.6832188,73.628707 41.3327357,73.4050948 C40.9822526,73.1814825 40.704791,72.9141241 40.5003425,72.6030114 C40.295894,72.2918988 40.1839358,71.8835695 40.1644645,71.3780114 C40.1449933,70.8724533 40.2520837,70.2016267 40.4857391,69.3655114 C41.439832,66.6238311 42.6859754,63.4009466 44.2242068,59.6967614 C45.7624382,55.9925762 47.4174725,52.1717811 49.1893592,48.2342614 C50.961246,44.2967417 52.776916,40.4078917 54.6364235,36.5675948 C56.4959311,32.7272978 58.2629235,29.3099708 59.9374539,26.3155114 C60.5410637,25.2266171 61.3199033,24.3467648 62.2739962,23.6759281 C63.2280891,23.0050914 64.639736,22.7474551 66.5089792,22.9030114 C68.144567,22.9807896 69.6000236,23.1120383 70.8753926,23.2967614 C72.1507617,23.4814846 73.3190212,23.6905103 74.3802061,23.9238448 C75.4413911,24.1571793 76.4198084,24.4148156 77.3154874,24.6967614 C78.2111664,24.9787073 79.1165675,25.2363436 80.0317179,25.4696781 C81.27788,25.9169026 82.0664551,26.5002301 82.3974669,27.2196781 C82.7284788,27.9391261 82.8355692,28.8724501 82.7187415,30.0196781 C82.4850861,32.8391366 82.2903762,36.0814653 82.1346059,39.7467614 C81.9788357,43.4120575 81.857142,47.2377137 81.7695212,51.2238448 C81.6819004,55.2099758 81.6283552,59.2009081 81.6088839,63.1967614 C81.5894126,67.1926147 81.5991481,70.9016054 81.6380907,74.3238448 C81.6380907,75.0432928 81.4871905,75.5439822 81.1853856,75.8259281 C80.8835807,76.1078739 80.2166993,76.2488448 79.1847213,76.2488448 C78.1527432,76.2488448 77.1986647,76.2148173 76.3224569,76.1467614 C75.4462492,76.0787055 74.5505836,75.8891241 73.6354333,75.5780114 C72.6813404,75.3057878 72.0144589,74.9509303 71.6347689,74.5134281 C71.2550789,74.0759259 70.9873527,73.303017 70.8315825,72.1946781 C70.6563409,71.0280056 70.5103085,69.7592683 70.3934808,68.3884281 C70.2766531,67.0175879 70.1598271,65.5155196 70.0429994,63.8821781 Z M58.6231489,55.5113448 C60.4145069,55.2391212 62.2204414,55.0009291 64.0410064,54.7967614 C65.8615714,54.5925937 67.6869768,54.4321787 69.5172774,54.3155114 C69.419921,51.0488284 69.3517725,47.7967776 69.31283,44.5592614 C69.2738874,41.3217452 69.2933584,38.1085829 69.3712435,34.9196781 C67.7940696,37.8169148 66.0757546,41.0252161 64.216247,44.5446781 C62.3567395,48.0641401 60.4923921,51.7196591 58.6231489,55.5113448 Z M122.989468,38.5003412 C123.347899,36.2247956 123.709559,34.0493114 124.074455,31.9738448 C124.522295,29.4266098 124.940921,27.2196874 125.330346,25.3530114 C125.641887,24.2446726 126.118926,23.5592627 126.761479,23.2967614 C127.404031,23.0342601 128.299697,23.0780097 129.448502,23.4280114 C130.714136,23.7585686 132.077105,24.2398138 133.537451,24.8717614 C134.997798,25.503709 136.263412,26.1793967 137.334333,26.8988448 C137.937942,27.3071801 138.419849,27.6571766 138.780068,27.9488448 C139.140287,28.2405129 139.398278,28.5467598 139.554048,28.8675948 C139.709818,29.1884297 139.768231,29.5384262 139.729289,29.9175948 C139.690346,30.2967633 139.592991,30.7488421 139.437221,31.2738448 C138.833611,33.2960771 138.234878,35.6099428 137.641004,38.2155114 C137.04713,40.82108 136.409455,43.6793848 135.72796,46.7905114 C137.40249,44.9627245 139.21816,43.0037163 141.175024,40.9134281 C143.131888,38.8231399 145.035177,36.7620494 146.884949,34.7300948 C148.734721,32.6981402 150.46764,30.7682983 152.083756,28.9405114 C153.699873,27.1127245 155.0239,25.5571845 156.055878,24.2738448 C156.737373,23.3988404 157.379916,22.9613448 157.983525,22.9613448 C158.66502,22.9613448 159.424389,23.3210634 160.261654,24.0405114 C161.137862,24.7988486 161.863156,25.6349513 162.437559,26.5488448 C163.011962,27.4627382 163.562018,28.454395 164.087742,29.5238448 C164.355364,30.2754966 164.472116,31.0163775 164.438002,31.7465037 C164.678942,31.4162579 164.927093,31.0885662 165.182454,30.7634281 C166.350731,29.2759207 167.645552,27.8807957 169.066955,26.5780114 C170.488359,25.2752271 171.938948,24.1669049 173.418765,23.2530114 C173.886076,22.9030097 174.499412,22.5578742 175.258792,22.2175948 C176.018172,21.8773153 176.874896,21.6294011 177.828989,21.4738448 C178.783082,21.3182884 179.819912,21.2696778 180.939511,21.3280114 C182.05911,21.3863451 183.212766,21.5905097 184.400514,21.9405114 C186.211344,22.5821813 188.022146,23.3842566 189.832975,24.3467614 C191.643804,25.3092662 193.162542,26.3446726 194.389233,27.4530114 C195.187555,28.2113486 195.805759,28.9648132 196.243863,29.7134281 C196.681967,30.4620429 196.993503,31.1960634 197.17848,31.9155114 C197.363457,32.6349595 197.46568,33.3446746 197.485151,34.0446781 C197.504622,34.7446816 197.514358,35.396064 197.514358,35.9988448 C197.358588,37.0294055 197.139539,38.2009215 196.857205,39.5134281 C196.574872,40.8259347 196.243865,42.1578658 195.864175,43.5092614 C195.484485,44.8606571 195.090197,46.1536997 194.6813,47.3884281 C194.272403,48.6231565 193.844042,49.6585628 193.396202,50.4946781 C192.90942,51.2919043 192.417778,51.8023159 191.92126,52.0259281 C191.424742,52.2495403 190.679977,52.1377359 189.686941,51.6905114 C184.215511,49.8627245 181.703753,47.2377508 182.151592,43.8155114 C182.229477,43.0960634 182.37551,42.2794049 182.589694,41.3655114 C182.803878,40.451618 183.022927,39.523155 183.246846,38.5800948 C183.470766,37.6370345 183.660608,36.7474601 183.816379,35.9113448 C183.972149,35.0752295 184.020826,34.4092639 183.962413,33.9134281 C183.903999,33.4175923 183.704421,33.1210675 183.363674,33.0238448 C183.022926,32.9266221 182.472871,33.1599531 181.713491,33.7238448 C181.031996,34.0738465 180.282362,34.6182855 179.464569,35.3571781 C178.646775,36.0960707 177.872803,36.9321734 177.14263,37.8655114 C176.412457,38.7988494 175.765046,39.8050894 175.200379,40.8842614 C174.635712,41.9634335 174.256027,43.0474504 174.061314,44.1363448 C173.866602,45.2252391 173.89094,46.2995339 174.134331,47.3592614 C174.377722,48.4189889 174.956984,49.3668961 175.872135,50.2030114 C177.02094,51.3113503 178.310894,52.3564787 179.742033,53.3384281 C181.173172,54.3203774 182.599422,55.2682846 184.020826,56.1821781 C185.44223,57.0960716 186.78086,58.0002292 188.036758,58.8946781 C189.292656,59.789127 190.329486,60.7030068 191.14728,61.6363448 C191.965074,62.5696828 192.485923,63.5564784 192.709843,64.5967614 C192.933763,65.6370444 192.724449,66.7502277 192.081897,67.9363448 C191.673,68.7724601 191.108341,69.6814787 190.387904,70.6634281 C189.667466,71.6453774 188.70852,72.5543961 187.511036,73.3905114 C186.313552,74.2266267 184.858096,74.9217587 183.144623,75.4759281 C181.43115,76.0300975 179.37696,76.3266223 176.981992,76.3655114 C173.769231,76.4432896 170.634401,75.8648232 167.57741,74.6300948 C164.520418,73.3953664 161.375853,71.2613599 158.14362,68.2280114 C156.391204,66.7696708 155.476068,65.6419043 155.398183,64.8446781 C155.320298,64.0668964 155.699982,63.4835689 156.537247,63.0946781 C157.257685,62.7835654 158.017053,62.5696787 158.815376,62.4530114 C159.613698,62.3363442 160.412009,62.2974557 161.210332,62.3363448 C162.008654,62.3752338 162.772891,62.5064825 163.503064,62.7300948 C164.233237,62.953707 164.900118,63.2599539 165.503728,63.6488448 C168.891732,65.7488553 171.846454,67.1002306 174.367986,67.7030114 C176.889517,68.3057922 178.705187,68.1502382 179.81505,67.2363448 C180.282361,66.9057876 180.389451,66.5120415 180.136324,66.0550948 C179.883198,65.598148 179.386688,65.0731533 178.646779,64.4800948 C177.90687,63.8870362 176.986866,63.2307928 175.886738,62.5113448 C174.786611,61.7918967 173.618351,61.0530152 172.381925,60.2946781 C171.145498,59.536341 169.90909,58.7488488 168.672664,57.9321781 C167.436237,57.1155073 166.321523,56.2891267 165.328488,55.4530114 C164.218624,54.5780071 163.235339,53.5717671 162.378603,52.4342614 C161.521866,51.2967557 160.854985,50.071768 160.377938,48.7592614 C159.900892,47.4467549 159.638034,46.056491 159.589355,44.5884281 C159.540677,43.1203652 159.779197,41.5696863 160.304922,39.9363448 C160.39777,39.5551588 160.508724,39.1685159 160.637784,38.7764153 C160.263187,39.2576007 159.865214,39.7511879 159.443864,40.2571781 C157.905633,42.1044096 156.231128,43.9953629 154.420298,45.9300948 C152.609469,47.8648267 150.725651,49.7849463 148.768787,51.6905114 C146.811923,53.5960765 144.957311,55.3849475 143.204895,57.0571781 C144.003218,58.3794069 144.869677,59.7259212 145.804299,61.0967614 C146.73892,62.4676016 147.663792,63.7898106 148.578943,65.0634281 C149.494093,66.3370456 150.370287,67.5134227 151.207553,68.5925948 C152.044818,69.6717668 152.784716,70.5710634 153.427268,71.2905114 C154.108763,71.9710704 154.381357,72.5203704 154.245058,72.9384281 C154.108759,73.3564857 153.602513,73.7599539 152.726305,74.1488448 C152.200581,74.4405129 151.587244,74.683566 150.886278,74.8780114 C150.185312,75.0724568 149.494092,75.2085666 148.812597,75.2863448 C147.780619,75.5585683 146.724318,75.6169011 145.643661,75.4613448 C144.563005,75.3057884 143.487233,74.6544061 142.416312,73.5071781 C141.987944,73.0210646 141.394079,72.3599601 140.634699,71.5238448 C139.875319,70.6877295 139.047802,69.7301002 138.152122,68.6509281 C137.256443,67.571756 136.316968,66.4245453 135.333668,65.2092614 C134.350368,63.9939776 133.4401,62.7932951 132.602834,61.6071781 C132.096581,64.2321912 131.639013,66.6432782 131.230116,68.8405114 C130.821219,71.0377446 130.461006,73.0307803 130.149465,74.8196781 C130.149465,75.4030143 130.013168,75.8064825 129.74057,76.0300948 C129.467972,76.253707 129.073685,76.3557893 128.557696,76.3363448 C128.041707,76.3169002 127.413767,76.1953737 126.673858,75.9717614 C125.93395,75.7481492 125.125903,75.5196793 124.249696,75.2863448 C122.458338,74.8196758 121.163517,74.2266261 120.365194,73.5071781 C119.566871,72.7877301 119.206658,71.6891299 119.284543,70.2113448 C119.323486,68.8113378 119.440312,66.9884393 119.635025,64.7425948 C119.829737,62.4967502 120.087728,60.0176083 120.409004,57.3050948 C120.73028,54.5925812 121.090494,51.7537207 121.489655,48.7884281 C121.662945,47.5010868 121.839905,46.2247482 122.020533,44.959405 C121.888193,45.4665884 121.750357,45.9408442 121.607025,46.3821781 C121.490197,46.6932908 121.373371,46.9898156 121.256544,47.2717614 C121.139716,47.5537073 120.969345,47.7724551 120.745425,47.9280114 C120.521505,48.0835678 120.209969,48.180789 119.810808,48.2196781 C119.411647,48.2585672 118.871327,48.2196787 118.189832,48.1030114 C116.924198,47.8696769 115.833823,47.5439857 114.918673,47.1259281 C114.003522,46.7078704 113.244154,46.2120421 112.640544,45.6384281 C112.036934,45.0648141 111.555027,44.3988486 111.194808,43.6405114 C110.83459,42.8821743 110.576599,42.0071831 110.420829,41.0155114 C110.304001,40.1793961 110.245588,39.4016261 110.245588,38.6821781 C110.28453,37.3988383 110.226118,36.2370444 110.070347,35.1967614 C109.914577,34.1564784 109.437538,33.4807908 108.639215,33.1696781 C107.840892,32.9363436 106.901417,33.3981445 105.820761,34.5550948 C104.740105,35.712045 103.644861,37.2141133 102.534998,39.0613448 C101.425135,40.9085762 100.378569,42.9502225 99.3952695,45.1863448 C98.4119697,47.4224671 97.6379978,49.4932797 97.0733306,51.3988448 C96.5670772,53.382188 96.1825252,55.3606404 95.9196628,57.3342614 C95.6568005,59.3078824 95.5643133,61.1016145 95.6421984,62.7155114 C95.7200836,64.3294084 95.982942,65.6953669 96.4307815,66.8134281 C96.878621,67.9314892 97.5211637,68.6071769 98.3584289,68.8405114 C99.9356028,69.3655141 102.359741,67.9558059 105.630917,64.6113448 C107.986942,62.2196661 111.063359,61.5585616 114.860259,62.6280114 C116.379019,63.0169023 117.167594,63.6342572 117.226008,64.4800948 C117.284422,65.3259323 116.972886,66.3613386 116.291391,67.5863448 C115.570954,69.0252408 114.650949,70.3377277 113.531351,71.5238448 C112.411752,72.7099618 111.297038,73.7016186 110.187174,74.4988448 C109.622507,74.8682911 108.950758,75.2134265 108.171907,75.5342614 C107.393055,75.8550964 106.575274,76.1127327 105.718537,76.3071781 C104.861801,76.5016235 103.966135,76.6377333 103.031514,76.7155114 C102.096892,76.7932896 101.191491,76.7932896 100.315283,76.7155114 C98.4460399,76.5988442 96.7520636,76.3120415 95.2333035,75.8550948 C93.7145434,75.398148 92.3613095,74.9752356 91.1735613,74.5863448 C90.0831694,74.1391203 89.0025294,73.4974601 87.9316088,72.6613448 C86.8606882,71.8252295 86.0234356,70.853017 85.4198258,69.7446781 C84.3878478,68.0335584 83.6625534,66.0113564 83.2439208,63.6780114 C82.8252882,61.3446664 82.674388,58.8558024 82.7912157,56.2113448 C82.9080434,53.5668871 83.2974632,50.839831 83.9594868,48.0300948 C84.6215105,45.2203585 85.5317793,42.4787192 86.6903207,39.8050948 C87.848862,37.1314703 89.2361702,34.6085788 90.8522867,32.2363448 C92.4684032,29.8641107 94.3084119,27.7835759 96.3723679,25.9946781 C98.0468983,24.5752266 99.7408745,23.6467636 101.454347,23.2092614 C103.16782,22.7717592 104.783913,22.6113442 106.302673,22.7280114 C107.412536,22.8446787 108.566192,23.0537044 109.763676,23.3550948 C110.96116,23.6564852 112.119684,24.0162038 113.239283,24.4342614 C114.358882,24.8523191 115.415183,25.3092589 116.408218,25.8050948 C117.401254,26.3009306 118.296919,26.8113421 119.095242,27.3363448 C119.854622,27.9585701 120.482561,28.5807861 120.979079,29.2030114 C121.475597,29.8252368 121.874752,30.4523138 122.176557,31.0842614 C122.478362,31.716209 122.687675,32.3821746 122.804503,33.0821781 C122.921331,33.7821816 122.999215,34.5307852 123.038157,35.3280114 C123.0771,36.2419049 123.067364,37.1946731 123.00895,38.1863448 C123.002782,38.2910646 122.996288,38.39573 122.989468,38.5003412 Z" id="path-5"></path>
        <filter x="-16.2%" y="-43.3%" width="132.3%" height="211.8%" filterUnits="objectBoundingBox" id="filter-6">
            <feMorphology radius="0.5" operator="dilate" in="SourceAlpha" result="shadowSpreadOuter1"></feMorphology>
            <feOffset dx="0" dy="7" in="shadowSpreadOuter1" result="shadowOffsetOuter1"></feOffset>
            <feGaussianBlur stdDeviation="3.5" in="shadowOffsetOuter1" result="shadowBlurOuter1"></feGaussianBlur>
            <feComposite in="shadowBlurOuter1" in2="SourceAlpha" operator="out" result="shadowBlurOuter1"></feComposite>
            <feColorMatrix values="0 0 0 0 0   0 0 0 0 0   0 0 0 0 0  0 0 0 0.3 0" type="matrix" in="shadowBlurOuter1" result="shadowMatrixOuter1"></feColorMatrix>
            <feMorphology radius="0.5" operator="dilate" in="SourceAlpha" result="shadowSpreadOuter2"></feMorphology>
            <feOffset dx="0" dy="7" in="shadowSpreadOuter2" result="shadowOffsetOuter2"></feOffset>
            <feGaussianBlur stdDeviation="9" in="shadowOffsetOuter2" result="shadowBlurOuter2"></feGaussianBlur>
            <feComposite in="shadowBlurOuter2" in2="SourceAlpha" operator="out" result="shadowBlurOuter2"></feComposite>
            <feColorMatrix values="0 0 0 0 0   0 0 0 0 0   0 0 0 0 0  0 0 0 0.3 0" type="matrix" in="shadowBlurOuter2" result="shadowMatrixOuter2"></feColorMatrix>
            <feMerge>
                <feMergeNode in="shadowMatrixOuter1"></feMergeNode>
                <feMergeNode in="shadowMatrixOuter2"></feMergeNode>
            </feMerge>
        </filter>
        <path d="M98.623895,77.1876774 C99.7629651,78.106432 100.59535,79.0835056 101.121075,80.1189274 C101.646799,81.1543493 102.026484,82.3282959 102.260139,83.6408024 C102.581415,85.81373 102.654431,88.1798521 102.47919,90.7392399 C102.303948,93.2986277 101.865851,95.8397481 101.164885,98.3626774 C100.463919,100.885607 99.5074062,103.269958 98.2953188,105.515802 C97.0832314,107.761647 95.5937006,109.657461 93.8266816,111.203302 C92.6291977,112.122057 91.3733187,112.738197 90.0590071,113.05174 C88.7446955,113.365283 87.2332598,113.434553 85.5246547,113.259552 C84.3855846,113.142885 83.2209759,112.95695 82.0307937,112.70174 C80.8406115,112.44653 79.7490191,112.063722 78.7559836,111.553302 C77.9381897,111.130384 77.142313,110.590806 76.3683295,109.934552 C75.5943459,109.278299 74.9810097,108.534557 74.5283024,107.703302 C73.8127327,106.332462 73.2760635,104.779353 72.9182787,103.043927 C72.5604939,101.308502 72.3962074,99.4856036 72.4254143,97.5751774 C72.4546212,95.6647512 72.6773207,93.7142499 73.0935194,91.7236149 C73.509718,89.73298 74.1230543,87.7970618 74.9335464,85.9158024 C75.7440386,84.034543 76.74071,82.2517483 77.9235904,80.5673649 C79.1064709,78.8829815 80.4718742,77.3699758 82.0198412,76.0283024 C83.0712905,75.2262151 84.3235186,74.617367 85.7765631,74.2017399 C87.2296077,73.7861128 88.613265,73.6803847 89.9275766,73.8845524 C91.6215783,74.1470537 93.2388875,74.5626746 94.7795528,75.1314274 C96.3202181,75.7001803 97.6016527,76.3855901 98.623895,77.1876774 Z M91.3952172,81.6720524 C90.7672684,81.4678847 90.0663127,81.7303821 89.2923292,82.4595524 C88.5183456,83.1887227 87.7407229,84.1803795 86.9594377,85.4345524 C86.1781524,86.6887254 85.4516411,88.0850656 84.7798818,89.6236149 C84.1081225,91.1621643 83.5605009,92.6460036 83.1370005,94.0751774 C82.7281035,95.4751844 82.4323879,96.9298574 82.2498446,98.4392399 C82.0673013,99.9486225 82.0052375,101.352254 82.0636514,102.650177 C82.1220652,103.948101 82.3338122,105.063714 82.6988988,105.997052 C83.0639854,106.93039 83.5897021,107.499135 84.2760649,107.703302 C84.9040138,107.90747 85.5611597,107.772576 86.2475224,107.298615 C86.9338852,106.824654 87.6202376,106.091849 88.3066004,105.100177 C88.9929631,104.108506 89.6428074,102.89081 90.2561529,101.447052 C90.8694983,100.003295 91.4025167,98.428311 91.855224,96.7220524 C92.234914,95.3220454 92.545233,93.7762276 92.7861901,92.0845524 C93.0271472,90.3928773 93.147624,88.8178931 93.147624,87.3595524 C93.147624,85.872045 93.0052424,84.5960161 92.7204748,83.5314274 C92.4357073,82.4668388 91.9939592,81.8470533 91.3952172,81.6720524 Z M112.456549,102.103302 C112.033048,103.926228 111.649713,105.672565 111.306532,107.342365 C110.96335,109.012165 110.623825,110.656419 110.287945,112.275177 C110.141911,112.741846 109.941116,113.051739 109.685555,113.204865 C109.429995,113.357991 108.95904,113.361636 108.272678,113.215802 C107.469487,112.997051 106.753928,112.825699 106.125979,112.70174 C105.49803,112.577781 104.899297,112.369971 104.329762,112.078302 C103.760227,111.757467 103.373241,111.363721 103.168793,110.897052 C102.964344,110.430383 102.891328,109.810598 102.949742,109.037677 C103.008156,108.410591 103.088474,107.499142 103.190698,106.303302 C103.292922,105.107463 103.41705,103.758518 103.563084,102.256427 C103.709119,100.754337 103.880707,99.1356028 104.077854,97.4001774 C104.275001,95.6647521 104.486748,93.9293528 104.713101,92.1939274 C104.939455,90.4585021 105.18771,88.7777897 105.457874,87.1517399 C105.728038,85.5256901 106.012802,84.0637256 106.312173,82.7658024 C106.611544,81.4678793 106.936466,80.3923692 107.286949,79.5392399 C107.637432,78.6861107 108.009815,78.1574701 108.404108,77.9533024 C110.258748,77.1220483 112.197328,76.301744 114.219908,75.4923649 C116.242487,74.6829859 118.232179,74.10695 120.189043,73.7642399 C122.145907,73.4215299 124.000519,73.3923635 125.752935,73.6767399 C127.50535,73.9611163 129.038691,74.7449627 130.353002,76.0283024 C131.404452,77.1658081 132.353663,78.3835043 133.200663,79.6814274 C134.047664,80.9793506 134.712112,82.568918 135.194026,84.4501774 C135.58832,86.4481041 135.442287,88.0887127 134.755924,89.3720524 C133.704475,91.4283127 131.973991,93.3241271 129.564419,95.0595524 C127.154848,96.7949778 124.278009,98.40642 120.933816,99.8939274 C121.620179,100.681431 122.375897,101.505381 123.200992,102.365802 C124.026088,103.226223 124.869425,104.090277 125.73103,104.95799 C126.592634,105.825703 127.450575,106.664236 128.304877,107.473615 C129.15918,108.282994 129.958707,108.986633 130.703484,109.584552 C131.302226,110.094972 131.572386,110.496009 131.513972,110.787677 C131.455558,111.079346 131.200001,111.392884 130.747294,111.728302 C130.206966,112.151221 129.750615,112.399135 129.378226,112.472052 C129.005838,112.544969 128.549487,112.625177 128.009158,112.712677 C127.352003,112.887678 126.629142,112.938719 125.840555,112.865802 C125.051968,112.792885 124.131964,112.442889 123.080515,111.815802 C122.394152,111.33455 121.601926,110.736639 120.703813,110.022052 C119.8057,109.307466 118.878394,108.516328 117.921867,107.648615 C116.96534,106.780902 116.008828,105.88039 115.052301,104.947052 C114.095774,104.013714 113.230532,103.065807 112.456549,102.103302 Z M117.253762,83.9033024 C116.771848,85.4199767 116.308195,87.0460021 115.862789,88.7814274 C115.417384,90.5168528 114.909921,92.3689176 114.340386,94.3376774 C116.399474,93.6522573 118.22853,92.8100783 119.827609,91.8111149 C121.426689,90.8121516 122.766536,89.7986201 123.847192,88.7704899 C124.927849,87.7423598 125.705471,86.7652862 126.180084,85.8392399 C126.654696,84.9131936 126.80438,84.1949716 126.629138,83.6845524 C126.264052,82.8532983 125.198015,82.4376774 123.430996,82.4376774 C122.569392,82.4376774 121.61653,82.5397597 120.572382,82.7439274 C119.528235,82.9480951 118.422039,83.3345496 117.253762,83.9033024 Z" id="path-7"></path>
        <filter x="-38.9%" y="-46.4%" width="177.8%" height="222.9%" filterUnits="objectBoundingBox" id="filter-8">
            <feMorphology radius="0.5" operator="dilate" in="SourceAlpha" result="shadowSpreadOuter1"></feMorphology>
            <feOffset dx="0" dy="6" in="shadowSpreadOuter1" result="shadowOffsetOuter1"></feOffset>
            <feGaussianBlur stdDeviation="3" in="shadowOffsetOuter1" result="shadowBlurOuter1"></feGaussianBlur>
            <feComposite in="shadowBlurOuter1" in2="SourceAlpha" operator="out" result="shadowBlurOuter1"></feComposite>
            <feColorMatrix values="0 0 0 0 0   0 0 0 0 0   0 0 0 0 0  0 0 0 0.3 0" type="matrix" in="shadowBlurOuter1" result="shadowMatrixOuter1"></feColorMatrix>
            <feMorphology radius="0.5" operator="dilate" in="SourceAlpha" result="shadowSpreadOuter2"></feMorphology>
            <feOffset dx="0" dy="6" in="shadowSpreadOuter2" result="shadowOffsetOuter2"></feOffset>
            <feGaussianBlur stdDeviation="7" in="shadowOffsetOuter2" result="shadowBlurOuter2"></feGaussianBlur>
            <feComposite in="shadowBlurOuter2" in2="SourceAlpha" operator="out" result="shadowBlurOuter2"></feComposite>
            <feColorMatrix values="0 0 0 0 0   0 0 0 0 0   0 0 0 0 0  0 0 0 0.3 0" type="matrix" in="shadowBlurOuter2" result="shadowMatrixOuter2"></feColorMatrix>
            <feMerge>
                <feMergeNode in="shadowMatrixOuter1"></feMergeNode>
                <feMergeNode in="shadowMatrixOuter2"></feMergeNode>
            </feMerge>
        </filter>
        <path d="M34.3780016,139.058237 C35.9357043,139.855463 37.2061865,140.968646 38.1894863,142.39782 C39.1727861,143.826994 39.8201966,145.299896 40.1317371,146.81657 C40.3264499,148.605468 40.0830625,150.12698 39.4015676,151.381153 C38.7200727,152.635326 37.6199617,153.855453 36.1012016,155.04157 C35.0692236,155.974908 33.8474189,156.859621 32.4357508,157.695737 C31.0240828,158.531852 29.5296842,159.285317 27.9525103,159.956153 C26.3753363,160.62699 24.7884505,161.234623 23.1918053,161.77907 C21.59516,162.323517 20.0764227,162.770735 18.6355478,163.120737 C17.895639,163.315182 17.2530963,163.451292 16.7079003,163.52907 C16.1627044,163.606848 15.6418554,163.626292 15.1453377,163.587403 C14.6488199,163.548514 14.1620452,163.446432 13.6849987,163.281153 C13.2079523,163.115875 12.6481613,162.858238 12.0056089,162.508237 C10.8178606,162.002679 9.77129487,161.45824 8.86588019,160.874903 C7.96046552,160.291567 6.91389974,159.542963 5.72615145,158.62907 C5.29778322,158.162401 4.91323114,157.758933 4.57248368,157.418653 C4.23173622,157.078374 3.95914235,156.718655 3.75469387,156.339487 C3.55024539,155.960318 3.40908071,155.532545 3.33119557,155.056153 C3.25331044,154.579762 3.25331044,153.962407 3.33119557,153.20407 C3.44802327,150.734613 3.66707193,147.934641 3.9883481,144.80407 C4.30962428,141.673499 4.66010212,138.426309 5.03979215,135.062403 C5.41948217,131.698498 5.76022452,128.315198 6.06202941,124.912403 C6.3638343,121.509608 6.55367647,118.272141 6.6315616,115.199903 C8.1503217,114.363788 9.90271092,113.590879 11.8887818,112.881153 C13.8748527,112.171427 15.9582488,111.554073 18.1390325,111.02907 C20.3198163,110.504067 22.524906,110.124904 24.754368,109.89157 C26.9838299,109.658235 29.1061679,109.599903 31.1214458,109.71657 C33.1367236,109.833237 34.9816,110.163789 36.6561304,110.708237 C38.3306608,111.252684 39.7033656,112.040176 40.7742862,113.070737 C42.1762186,114.451299 43.3444781,115.938784 44.2790997,117.533237 C45.2137213,119.127689 45.9049415,120.984615 46.352781,123.10407 C46.5474938,124.251298 46.5328906,125.364481 46.3089708,126.443653 C46.0850511,127.522825 45.7151023,128.558232 45.1991132,129.549903 C44.6831242,130.541575 44.0454493,131.465177 43.2860692,132.320737 C42.5266892,133.176296 41.7089075,133.983233 40.8326998,134.74157 C39.8786069,135.461018 38.9050573,136.190177 37.9120219,136.92907 C36.9189864,137.667963 35.7409915,138.377678 34.3780016,139.058237 Z M18.5771342,134.799903 C21.1278723,133.963788 23.410846,132.96727 25.4261239,131.81032 C27.4414017,130.65337 29.1402457,129.491576 30.5227068,128.324903 C31.9051679,127.158231 32.9127917,126.045047 33.5456084,124.98532 C34.1784251,123.925592 34.4169448,123.074906 34.2611745,122.433237 C34.1054042,121.927679 33.6673069,121.543655 32.9468695,121.281153 C32.226432,121.018652 31.2966921,120.91657 30.1576221,120.974903 C29.018552,121.033237 27.7139956,121.261707 26.2439137,121.66032 C24.7738318,122.058933 23.1820783,122.656844 21.4686053,123.45407 C20.9039381,125.16519 20.4220311,126.954061 20.0228698,128.820737 C19.6237085,130.687413 19.1418014,132.680448 18.5771342,134.799903 Z M16.3282122,144.71657 C16.0166717,146.388801 15.6856648,147.992951 15.3351817,149.52907 C14.9846986,151.065189 14.6731628,152.630451 14.4005648,154.224903 C16.4839921,153.699901 18.3824138,153.067963 20.0958867,152.32907 C21.8093596,151.590177 23.2648162,150.812407 24.4623002,149.995737 C25.6597841,149.179066 26.5457142,148.367268 27.1201171,147.56032 C27.6945199,146.753371 27.9038331,146.009629 27.7480628,145.32907 C27.5338787,144.920735 27.1298556,144.556155 26.5359815,144.23532 C25.9421073,143.914485 25.1486644,143.695737 24.155629,143.57907 C23.1625935,143.462403 22.0089373,143.491569 20.6946257,143.66657 C19.3803141,143.841571 17.9248575,144.191567 16.3282122,144.71657 Z M116.877749,119.995735 C115.354321,120.147894 113.69719,120.313865 111.906311,120.493653 C110.066275,120.678376 108.172721,120.867958 106.225592,121.062403 C105.388327,124.406864 104.521868,127.872802 103.626189,131.46032 C102.73051,135.047838 101.864051,138.601275 101.026786,142.120737 C100.189521,145.640199 99.4058131,149.072109 98.67564,152.41657 C97.9454669,155.761031 97.2980564,158.891555 96.7333892,161.808237 C96.6360328,162.372128 96.4413229,162.741569 96.1492536,162.91657 C95.8571844,163.091571 95.4482936,163.169348 94.9225689,163.149903 C94.3968443,163.130459 93.7981113,163.018654 93.126352,162.814487 C92.4545927,162.610319 91.7000918,162.391571 90.8628266,162.158237 C90.0255614,161.924902 89.2661928,161.667266 88.5846979,161.38532 C87.9032029,161.103374 87.3336765,160.7631 86.8761013,160.364487 C86.4185261,159.965873 86.092387,159.499211 85.8976742,158.964487 C85.7029614,158.429762 85.6834904,157.78324 85.8392606,157.024903 C85.9560883,155.119338 86.194608,152.771445 86.5548267,149.981153 C86.9150455,147.190862 87.3434073,144.245058 87.839925,141.143653 C88.3364427,138.042249 88.8816305,134.906864 89.4755046,131.737403 C90.0693788,128.567943 90.6681117,125.631861 91.2717215,122.92907 C90.1229158,123.123515 89.0082016,123.288791 87.9275453,123.424903 C86.8468891,123.561015 85.9463558,123.726291 85.2259183,123.920737 C84.2328828,124.173516 83.4199689,124.207543 82.7871522,124.02282 C82.1543355,123.838097 81.4387766,123.327685 80.640454,122.49157 C80.0657278,121.917633 79.5231185,121.24063 79.0126184,120.460552 C78.777878,120.511942 78.5174845,120.557004 78.2314375,120.595737 C75.8364696,120.86796 73.3636538,121.145041 70.8129156,121.426987 C68.2621775,121.708932 65.5751807,122.044346 62.7518446,122.433237 C62.1482348,124.222134 61.5884439,126.083921 61.0724548,128.018653 C60.5564658,129.953385 59.9772038,131.980448 59.3346515,134.099903 C60.5223998,133.924902 61.714998,133.798515 62.9124819,133.720737 C64.1099658,133.642958 65.3901835,133.584626 66.7531734,133.545737 C67.8630365,133.506848 68.7343634,133.60893 69.3671801,133.851987 C69.9999968,134.095043 70.5403168,134.615177 70.9881563,135.412403 C71.4749384,136.209629 71.849755,136.992261 72.1126173,137.76032 C72.3754796,138.528379 72.6042638,139.31101 72.7989766,140.108237 C73.1105171,141.041575 73.1348559,141.668652 72.8719936,141.989487 C72.6091312,142.310322 71.9227788,142.587402 70.8129156,142.820737 C68.4179478,143.248517 65.9792061,143.661707 63.4966175,144.06032 C61.0140289,144.458933 58.6142292,144.90129 56.2971465,145.387403 C55.9661347,146.651298 55.6594665,147.851981 55.3771329,148.989487 C55.0947993,150.126992 54.7978667,151.249898 54.4863262,152.358237 C56.3555694,152.047124 58.1420328,151.789488 59.8457701,151.58532 C61.5495074,151.381152 63.3943838,151.220737 65.3804547,151.10407 C66.4903179,151.026292 67.3519093,151.10893 67.9652547,151.351987 C68.5786001,151.595043 69.1091846,152.076289 69.5570241,152.795737 C70.0438062,153.592963 70.4186228,154.336705 70.6814851,155.026987 C70.9443475,155.717268 71.2315446,156.422122 71.5430851,157.14157 C71.7377979,157.938796 71.7329302,158.488096 71.5284817,158.789487 C71.3240332,159.090877 70.6863583,159.338791 69.6154377,159.533237 C67.0646996,160.01935 64.4750577,160.515179 61.8464345,161.020737 C59.2178112,161.526295 56.7060534,162.002679 54.3110855,162.449903 C52.7144403,162.858239 51.5072388,162.950599 50.6894449,162.726987 C49.871651,162.503374 49.1609598,162.197127 48.55735,161.808237 C47.8953264,161.361012 47.2527837,160.908933 46.6297026,160.451987 C46.0066216,159.99504 45.2764594,159.406851 44.4391942,158.687403 C43.7576993,158.142956 43.2271148,157.491574 42.8474248,156.733237 C42.4677347,155.974899 42.3168346,155.06102 42.3947197,153.99157 L48.0900416,114.26657 C49.8035145,113.819345 51.7068039,113.357545 53.7999669,112.881153 C55.8931298,112.404762 58.0884841,111.967266 60.3860955,111.568653 C62.683707,111.17004 65.0348292,110.820044 67.4395327,110.518653 C69.8442362,110.217263 72.2440358,110.027681 74.6390037,109.949903 C76.9171438,109.911014 78.3774682,110.786005 79.0200205,112.574903 C79.1373607,112.800248 79.2465938,113.020107 79.3477198,113.234482 C81.2908646,112.882109 83.4206243,112.550446 85.7370369,112.239487 C88.7064076,111.840873 91.7390145,111.481155 94.8349486,111.16032 C97.9308826,110.839485 100.96349,110.567265 103.93286,110.343653 C106.902231,110.120041 109.564889,109.969348 111.920914,109.89157 C113.147605,109.89157 114.033535,109.998513 114.578731,110.212403 C115.123927,110.426293 115.591231,110.795734 115.980657,111.320737 C116.511897,111.928884 116.982778,112.573618 117.393304,113.254949 C119.366671,112.894945 121.53394,112.556459 123.895151,112.239487 C126.864522,111.840873 129.897128,111.481155 132.993063,111.16032 C136.088997,110.839485 139.121603,110.567265 142.090974,110.343653 C145.060345,110.120041 147.723003,109.969348 150.079028,109.89157 C151.305719,109.89157 152.191649,109.998513 152.736845,110.212403 C153.282041,110.426293 153.749345,110.795734 154.138771,111.320737 C154.937093,112.23463 155.599107,113.231148 156.124831,114.31032 C156.491685,115.063372 156.796908,115.804582 157.040504,116.533959 L157.365577,114.26657 C159.07905,113.819345 160.982339,113.357545 163.075502,112.881153 C165.168665,112.404762 167.364019,111.967266 169.661631,111.568653 C171.959242,111.17004 174.310364,110.820044 176.715068,110.518653 C179.119771,110.217263 181.519571,110.027681 183.914539,109.949903 C186.192679,109.911014 187.653003,110.786005 188.295556,112.574903 C188.801809,113.54713 189.157155,114.417261 189.361603,115.18532 C189.566052,115.953379 189.765629,116.794343 189.960342,117.708237 C190.116112,118.758242 190.033361,119.463096 189.712085,119.82282 C189.390808,120.182544 188.655778,120.44018 187.506973,120.595737 C185.112005,120.86796 182.639189,121.145041 180.088451,121.426987 C177.537713,121.708932 174.850716,122.044346 172.02738,122.433237 C171.42377,124.222134 170.863979,126.083921 170.34799,128.018653 C169.832001,129.953385 169.252739,131.980448 168.610187,134.099903 C169.797935,133.924902 170.990533,133.798515 172.188017,133.720737 C173.385501,133.642958 174.665719,133.584626 176.028709,133.545737 C177.138572,133.506848 178.009899,133.60893 178.642715,133.851987 C179.275532,134.095043 179.815852,134.615177 180.263692,135.412403 C180.750474,136.209629 181.12529,136.992261 181.388153,137.76032 C181.651015,138.528379 181.879799,139.31101 182.074512,140.108237 C182.386052,141.041575 182.410391,141.668652 182.147529,141.989487 C181.884666,142.310322 181.198314,142.587402 180.088451,142.820737 C177.693483,143.248517 175.254741,143.661707 172.772153,144.06032 C170.289564,144.458933 167.889764,144.90129 165.572682,145.387403 C165.24167,146.651298 164.935002,147.851981 164.652668,148.989487 C164.370335,150.126992 164.073402,151.249898 163.761861,152.358237 C165.631105,152.047124 167.417568,151.789488 169.121305,151.58532 C170.825043,151.381152 172.669919,151.220737 174.65599,151.10407 C175.765853,151.026292 176.627444,151.10893 177.24079,151.351987 C177.854135,151.595043 178.38472,152.076289 178.832559,152.795737 C179.319341,153.592963 179.694158,154.336705 179.95702,155.026987 C180.219883,155.717268 180.50708,156.422122 180.81862,157.14157 C181.013333,157.938796 181.008465,158.488096 180.804017,158.789487 C180.599568,159.090877 179.961894,159.338791 178.890973,159.533237 C176.340235,160.01935 173.750593,160.515179 171.12197,161.020737 C168.493346,161.526295 165.981589,162.002679 163.586621,162.449903 C161.989975,162.858239 160.782774,162.950599 159.96498,162.726987 C159.147186,162.503374 158.436495,162.197127 157.832885,161.808237 C157.170862,161.361012 156.528319,160.908933 155.905238,160.451987 C155.282157,159.99504 154.551995,159.406851 153.714729,158.687403 C153.033235,158.142956 152.50265,157.491574 152.12296,156.733237 C151.74327,155.974899 151.59237,155.06102 151.670255,153.99157 L156.574812,119.78217 C156.217764,119.879092 155.746497,119.946114 155.161008,119.983237 C153.603305,120.138793 151.904461,120.30893 150.064425,120.493653 C148.224389,120.678376 146.330835,120.867958 144.383706,121.062403 C143.546441,124.406864 142.679982,127.872802 141.784303,131.46032 C140.888624,135.047838 140.022165,138.601275 139.1849,142.120737 C138.347634,145.640199 137.563927,149.072109 136.833754,152.41657 C136.103581,155.761031 135.45617,158.891555 134.891503,161.808237 C134.794147,162.372128 134.599437,162.741569 134.307368,162.91657 C134.015298,163.091571 133.606408,163.169348 133.080683,163.149903 C132.554958,163.130459 131.956225,163.018654 131.284466,162.814487 C130.612707,162.610319 129.858206,162.391571 129.020941,162.158237 C128.183675,161.924902 127.424307,161.667266 126.742812,161.38532 C126.061317,161.103374 125.49179,160.7631 125.034215,160.364487 C124.57664,159.965873 124.250501,159.499211 124.055788,158.964487 C123.861075,158.429762 123.841604,157.78324 123.997375,157.024903 C124.114202,155.119338 124.352722,152.771445 124.712941,149.981153 C125.073159,147.190862 125.501521,144.245058 125.998039,141.143653 C126.494557,138.042249 127.039744,134.906864 127.633619,131.737403 C128.227493,128.567943 128.826226,125.631861 129.429835,122.92907 C128.28103,123.123515 127.166316,123.288791 126.085659,123.424903 C125.005003,123.561015 124.10447,123.726291 123.384032,123.920737 C122.390997,124.173516 121.578083,124.207543 120.945266,124.02282 C120.312449,123.838097 119.596891,123.327685 118.798568,122.49157 C118.112538,121.806482 117.472269,120.974543 116.877749,119.995735 Z M198.70723,147.95407 C198.142562,150.384638 197.631449,152.713087 197.173874,154.939487 C196.716299,157.165887 196.263598,159.358226 195.815759,161.51657 C195.621046,162.138795 195.35332,162.551986 195.012572,162.756153 C194.671825,162.960321 194.043885,162.965182 193.128735,162.770737 C192.057814,162.479068 191.103736,162.250599 190.266471,162.08532 C189.429205,161.920041 188.630895,161.642961 187.871515,161.25407 C187.112135,160.82629 186.596153,160.301295 186.323555,159.67907 C186.050957,159.056845 185.953602,158.230464 186.031488,157.199903 C186.109373,156.363788 186.216463,155.148522 186.352762,153.55407 C186.489061,151.959618 186.654565,150.161024 186.849277,148.158237 C187.04399,146.155449 187.272774,143.997137 187.535637,141.683237 C187.798499,139.369336 188.080828,137.05547 188.382633,134.74157 C188.684438,132.427669 189.015445,130.18672 189.375664,128.018653 C189.735883,125.850587 190.115567,123.901301 190.514728,122.170737 C190.913889,120.440172 191.347119,119.006159 191.81443,117.868653 C192.281741,116.731148 192.778251,116.026294 193.303976,115.75407 C195.776829,114.645731 198.361603,113.551992 201.058375,112.47282 C203.755148,111.393648 206.408071,110.6256 209.017223,110.168653 C211.626375,109.711707 214.099191,109.672818 216.435745,110.051987 C218.772299,110.431155 220.816753,111.476284 222.569168,113.187403 C223.971101,114.704078 225.236715,116.327672 226.366049,118.058237 C227.495384,119.788801 228.381314,121.908224 229.023866,124.41657 C229.549591,127.080472 229.354881,129.26795 228.439731,130.97907 C227.037798,133.72075 224.730486,136.248503 221.517724,138.562403 C218.304962,140.876304 214.469177,143.024893 210.010253,145.008237 C210.925403,146.058242 211.933027,147.156842 213.033155,148.30407 C214.133282,149.451298 215.257732,150.60337 216.406538,151.76032 C217.555343,152.91727 218.699264,154.035315 219.838334,155.114487 C220.977404,156.193659 222.043441,157.131844 223.036477,157.92907 C223.834799,158.609629 224.195013,159.144346 224.117127,159.533237 C224.039242,159.922127 223.6985,160.340179 223.09489,160.787403 C222.374453,161.351295 221.765984,161.681847 221.269466,161.77907 C220.772949,161.876293 220.16448,161.983236 219.444043,162.099903 C218.567835,162.333238 217.604021,162.401293 216.552572,162.30407 C215.501122,162.206847 214.27445,161.740185 212.872517,160.90407 C211.957367,160.2624 210.901066,159.465186 209.703582,158.512403 C208.506098,157.559621 207.26969,156.50477 205.994321,155.34782 C204.718952,154.19087 203.443602,152.990187 202.168233,151.745737 C200.892864,150.501286 199.739208,149.23741 198.70723,147.95407 Z M205.103514,123.687403 C204.460962,125.709636 203.842758,127.877669 203.248884,130.19157 C202.65501,132.50547 201.978393,134.97489 201.219013,137.599903 C203.964464,136.68601 206.403205,135.563104 208.535311,134.231153 C210.667416,132.899202 212.45388,131.547827 213.894755,130.176987 C215.33563,128.806146 216.37246,127.503382 217.005277,126.268653 C217.638093,125.033925 217.837671,124.076296 217.604016,123.395737 C217.117234,122.287398 215.695851,121.733237 213.339826,121.733237 C212.19102,121.733237 210.920538,121.869346 209.528341,122.14157 C208.136145,122.413794 206.661217,122.929066 205.103514,123.687403 Z" id="path-9"></path>
        <filter x="-13.7%" y="-44.5%" width="127.4%" height="214.9%" filterUnits="objectBoundingBox" id="filter-10">
            <feMorphology radius="0.5" operator="dilate" in="SourceAlpha" result="shadowSpreadOuter1"></feMorphology>
            <feOffset dx="0" dy="7" in="shadowSpreadOuter1" result="shadowOffsetOuter1"></feOffset>
            <feGaussianBlur stdDeviation="3.5" in="shadowOffsetOuter1" result="shadowBlurOuter1"></feGaussianBlur>
            <feComposite in="shadowBlurOuter1" in2="SourceAlpha" operator="out" result="shadowBlurOuter1"></feComposite>
            <feColorMatrix values="0 0 0 0 0   0 0 0 0 0   0 0 0 0 0  0 0 0 0.3 0" type="matrix" in="shadowBlurOuter1" result="shadowMatrixOuter1"></feColorMatrix>
            <feMorphology radius="0.5" operator="dilate" in="SourceAlpha" result="shadowSpreadOuter2"></feMorphology>
            <feOffset dx="0" dy="7" in="shadowSpreadOuter2" result="shadowOffsetOuter2"></feOffset>
            <feGaussianBlur stdDeviation="9" in="shadowOffsetOuter2" result="shadowBlurOuter2"></feGaussianBlur>
            <feComposite in="shadowBlurOuter2" in2="SourceAlpha" operator="out" result="shadowBlurOuter2"></feComposite>
            <feColorMatrix values="0 0 0 0 0   0 0 0 0 0   0 0 0 0 0  0 0 0 0.3 0" type="matrix" in="shadowBlurOuter2" result="shadowMatrixOuter2"></feColorMatrix>
            <feMerge>
                <feMergeNode in="shadowMatrixOuter1"></feMergeNode>
                <feMergeNode in="shadowMatrixOuter2"></feMergeNode>
            </feMerge>
        </filter>
    </defs>
    <g id="logo" stroke="none" stroke-width="1" fill="none" fill-rule="evenodd">
        <g transform="translate(22.000000, -3.000000)">
            <g id="cards" transform="translate(285.167848, 141.075946) rotate(31.000000) translate(-285.167848, -141.075946) translate(187.667848, 35.075946)">
                <g id="jackred" transform="translate(89.555066, 102.145950) rotate(-23.000000) translate(-89.555066, -102.145950) translate(28.555066, 17.145950)">
                    <g id="Rectangle-Copy-2">
                        <use fill="black" fill-opacity="1" filter="url(#filter-2)" xlink:href="#path-1"></use>
                        <rect stroke="#000000" stroke-width="1.42222222" stroke-linejoin="square" fill="#FFFFFF" fill-rule="evenodd" x="0.711111111" y="0.711111111" width="120.048715" height="168.454321" rx="4.97777778"></rect>
                    </g>
                    <path d="M14.7951601,34.5577425 C12.9744367,34.5577425 11.3011912,34.225355 9.77537367,33.5605699 C8.2495561,32.8957849 6.99943021,31.948794 6.02495848,30.7195688 L9.48688019,26.6556202 C10.9485878,28.5872597 12.6154223,29.553065 14.4874338,29.553065 C17.026189,29.553065 18.2955476,28.0980856 18.2955476,25.1880832 L18.2955476,12.6575749 L8.83296164,12.6575749 L8.83296164,7.76578483 L24.4885409,7.76578483 L24.4885409,24.8494208 C24.4885409,28.0855442 23.6679455,30.5126004 22.0267299,32.1306621 C20.3855144,33.7487238 17.9750152,34.5577425 14.7951601,34.5577425 Z" id="J" fill="#D40000"></path>
                    <path d="M105.946951,162.207831 C104.126228,162.207831 102.452982,161.875443 100.927165,161.210658 C99.4013473,160.545873 98.1512214,159.598882 97.1767497,158.369657 L100.638671,154.305708 C102.100379,156.237348 103.767214,157.203153 105.639225,157.203153 C108.17798,157.203153 109.447339,155.748174 109.447339,152.838171 L109.447339,140.307663 L99.9847529,140.307663 L99.9847529,135.415873 L115.640332,135.415873 L115.640332,152.499509 C115.640332,155.735632 114.819737,158.162689 113.178521,159.78075 C111.537306,161.398812 109.126806,162.207831 105.946951,162.207831 Z" id="J-Copy" fill="#D40000" transform="translate(106.408541, 148.811852) rotate(-180.000000) translate(-106.408541, -148.811852) "></path>
                    <ellipse id="Oval-Copy" stroke="#D40000" stroke-width="4.8" cx="58.3754618" cy="87.295742" rx="43.3130656" ry="43.2665155"></ellipse>
                    <ellipse id="Oval-Copy-2" stroke="#D40000" stroke-width="4.8" cx="63.0954753" cy="82.5808012" rx="43.3130656" ry="43.2665155"></ellipse>
                    <path d="M60.7354266,104.838095 C60.7354266,104.838095 56.8920482,98.4904905 51.7075273,91.0274011 C48.2391565,86.0331586 45.4662705,80.6253231 45.2084694,75.9673047 C44.9127805,70.646332 47.7116937,65.3081459 52.7789257,65.0494233 C57.843112,64.7908499 59.8986848,69.1521287 60.7354266,72.7478447 C61.5722507,69.1521287 63.6278235,64.7908499 68.6920097,65.0494233 C73.7592434,65.3081459 76.5581566,70.646332 76.2624678,75.9673047 C76.0046666,80.6253231 73.2317807,86.0331586 69.7634082,91.0274011 C64.5788873,98.4904905 60.7354266,104.838095 60.7354266,104.838095 Z" id="path9850-2-3-copy" fill="#D40000"></path>
                </g>
                <g id="jackblack" transform="translate(121.185736, 117.620081) rotate(-9.000000) translate(-121.185736, -117.620081) translate(60.185736, 32.620081)">
                    <g id="Rectangle-Copy-2">
                        <use fill="black" fill-opacity="1" filter="url(#filter-4)" xlink:href="#path-3"></use>
                        <rect stroke="#000000" stroke-width="1.42222222" stroke-linejoin="square" fill="#FFFFFF" fill-rule="evenodd" x="0.711111111" y="0.711111111" width="120.048715" height="168.454321" rx="4.97777778"></rect>
                    </g>
                    <path d="M45.1881568,90.4539985 C45.1444566,93.0756001 46.5723411,97.5314473 51.044859,98.3843294 C53.946553,98.9351111 57.9416262,96.6038267 58.0250539,91.8675765 C58.0123411,90.9246312 59.0308738,90.9491365 59.0213392,92.2412053 C58.8846768,95.9771157 57.6933296,100.326739 55.6910654,103.867372 C58.8920661,103.867372 62.0929873,103.867372 65.293988,103.867372 C63.2917238,100.326739 62.1003766,95.9771157 61.9637141,92.2412053 C61.9541795,90.9491365 62.9727123,90.9246312 62.9599995,91.8675765 C63.0434272,96.6038267 67.0385004,98.9351111 69.9401944,98.3843294 C74.4127123,97.5314473 75.8405968,93.0756001 75.7968966,90.4539985 C75.6665905,82.3580538 67.8230384,76.3863564 60.4925267,66.0091711 C53.162015,76.3863564 45.3184629,82.3580538 45.1881568,90.4539985 Z" id="path6844-7-0-copy" fill="#000000"></path>
                    <path d="M14.7951601,34.5577425 C12.9744367,34.5577425 11.3011912,34.225355 9.77537367,33.5605699 C8.2495561,32.8957849 6.99943021,31.948794 6.02495848,30.7195688 L9.48688019,26.6556202 C10.9485878,28.5872597 12.6154223,29.553065 14.4874338,29.553065 C17.026189,29.553065 18.2955476,28.0980856 18.2955476,25.1880832 L18.2955476,12.6575749 L8.83296164,12.6575749 L8.83296164,7.76578483 L24.4885409,7.76578483 L24.4885409,24.8494208 C24.4885409,28.0855442 23.6679455,30.5126004 22.0267299,32.1306621 C20.3855144,33.7487238 17.9750152,34.5577425 14.7951601,34.5577425 Z" id="J" fill="#000000"></path>
                    <path d="M105.946951,162.207831 C104.126228,162.207831 102.452982,161.875443 100.927165,161.210658 C99.4013473,160.545873 98.1512214,159.598882 97.1767497,158.369657 L100.638671,154.305708 C102.100379,156.237348 103.767214,157.203153 105.639225,157.203153 C108.17798,157.203153 109.447339,155.748174 109.447339,152.838171 L109.447339,140.307663 L99.9847529,140.307663 L99.9847529,135.415873 L115.640332,135.415873 L115.640332,152.499509 C115.640332,155.735632 114.819737,158.162689 113.178521,159.78075 C111.537306,161.398812 109.126806,162.207831 105.946951,162.207831 Z" id="J-Copy" fill="#000000" transform="translate(106.408541, 148.811852) rotate(-180.000000) translate(-106.408541, -148.811852) "></path>
                    <ellipse id="Oval-Copy" stroke="#000000" stroke-width="4.8" cx="58.3754618" cy="87.295742" rx="43.3130656" ry="43.2665155"></ellipse>
                    <ellipse id="Oval-Copy-2" stroke="#000000" stroke-width="4.8" cx="63.0954753" cy="82.5808012" rx="43.3130656" ry="43.2665155"></ellipse>
                </g>
            </g>
            <g id="logotype" transform="translate(0.000000, 47.000000)">
                <g id="Jacks" transform="translate(101.585778, 49.038996) rotate(-13.000000) translate(-101.585778, -49.038996) ">
                    <use fill="black" fill-opacity="1" filter="url(#filter-6)" xlink:href="#path-5"></use>
                    <use fill="#FFFFFF" fill-rule="evenodd" xlink:href="#path-5"></use>
                </g>
                <g id="or" transform="translate(103.915965, 93.418440) rotate(-13.000000) translate(-103.915965, -93.418440) ">
                    <use fill="black" fill-opacity="1" filter="url(#filter-8)" xlink:href="#path-7"></use>
                    <use fill="#FFFFFF" fill-rule="evenodd" xlink:href="#path-7"></use>
                </g>
                <g id="Better" transform="translate(116.292188, 136.632542) rotate(-13.000000) translate(-116.292188, -136.632542) ">
                    <use fill="black" fill-opacity="1" filter="url(#filter-10)" xlink:href="#path-9"></use>
                    <use fill="#FFFFFF" fill-rule="evenodd" xlink:href="#path-9"></use>
                </g>
            </g>
        </g>
    </g>
</svg>