<svg width="475" height="225" viewBox="0 0 475 225" xmlns="http://www.w3.org/2000/svg" xmlns:xlink="http://www.w3.org/1999/xlink"><title>Jacks or Better Video Poker Game</title><defs><path id="logo_svg__d" d="M64-29h25v160H64z"/><path id="logo_svg__e" d="M64-24h25v150H64z"/><path id="logo_svg__f" d="M64-29h25v160H64z"/><path d="M55 110C24.624 110 0 85.376 0 55S24.624 0 55 0s55 24.624 55 55-24.624 55-55 55zm0-5c27.614 0 50-22.386 50-50S82.614 5 55 5 5 27.386 5 55s22.386 50 50 50z" id="logo_svg__g"/><filter x="-8.5%" y="-18.8%" width="117.1%" height="137.5%" filterUnits="objectBoundingBox" id="logo_svg__a"><feOffset dy="10" in="SourceAlpha" result="shadowOffsetOuter1"/><feGaussianBlur stdDeviation="5" in="shadowOffsetOuter1" result="shadowBlurOuter1"/><feColorMatrix values="0 0 0 0 0 0 0 0 0 0 0 0 0 0 0 0 0 0 0.5 0" in="shadowBlurOuter1" result="shadowMatrixOuter1"/><feMerge><feMergeNode in="shadowMatrixOuter1"/><feMergeNode in="SourceGraphic"/></feMerge></filter><filter x="-1.8%" y="-1.8%" width="103.6%" height="103.6%" filterUnits="objectBoundingBox" id="logo_svg__h"><feGaussianBlur stdDeviation="1.5" in="SourceAlpha" result="shadowBlurInner1"/><feOffset dy="1" in="shadowBlurInner1" result="shadowOffsetInner1"/><feComposite in="shadowOffsetInner1" in2="SourceAlpha" operator="arithmetic" k2="-1" k3="1" result="shadowInnerInner1"/><feColorMatrix values="0 0 0 0 0 0 0 0 0 0 0 0 0 0 0 0 0 0 0.3 0" in="shadowInnerInner1"/></filter><circle id="logo_svg__b" cx="75" cy="75" r="75"/><circle id="logo_svg__j" cx="75.899" cy="75.001" r="75"/><linearGradient x1="50%" y1="100%" x2="50%" y2="2.409%" id="logo_svg__k"><stop stop-color="#FBD023" offset="0%"/><stop stop-color="#FFF4A2" offset="100%"/></linearGradient></defs><g filter="url(#logo_svg__a)" transform="translate(16 -3)" fill="none" fill-rule="evenodd"><g transform="rotate(-3 870.177 -.305)"><rect stroke="#000" stroke-width="1.5" fill="#FFF" x=".75" y=".75" width="119.971" height="141.377" rx="4.978"/><path d="M23.575 62c-3.649 0-7.002-.67-10.06-2.01-3.057-1.34-5.562-3.248-7.515-5.726l6.938-8.191c2.929 3.893 6.269 5.84 10.02 5.84 5.088 0 7.632-2.933 7.632-8.798V17.86H11.627V8H43v34.433c0 6.522-1.644 11.414-4.933 14.675C34.777 60.37 29.947 62 23.575 62z" fill="#000"/></g><g transform="rotate(-1 2243.64 -2860.262)"><rect stroke="#000" stroke-width="1.5" fill="#FFF" x=".75" y=".75" width="119.971" height="133.377" rx="4.978"/><path d="M48.337 50.429H23.082L18.264 62H5.365L29.61 8h12.433l24.322 54h-13.21l-4.818-11.571zm-3.963-9.489l-8.626-20.674-8.625 20.674h17.25z" fill="#000"/></g><g transform="translate(111.965 35.368)"><rect stroke="#000" stroke-width="1.5" fill="#FFF" x=".75" y=".75" width="119.971" height="131.377" rx="4.978"/><path d="M34.368 62c-5.34 0-10.167-1.156-14.483-3.468-4.317-2.312-7.71-5.52-10.18-9.622C7.235 44.808 6 40.171 6 35c0-5.171 1.235-9.808 3.705-13.91 2.47-4.102 5.863-7.31 10.18-9.622C24.2 9.156 29.054 8 34.443 8c4.541 0 8.645.796 12.313 2.387 3.668 1.59 6.749 3.878 9.244 6.862l-7.784 7.16c-3.543-4.078-7.935-6.116-13.174-6.116-3.244 0-6.138.708-8.683 2.126a15.138 15.138 0 00-5.95 5.93c-1.422 2.535-2.134 5.419-2.134 8.651s.712 6.116 2.134 8.652a15.138 15.138 0 005.95 5.93c2.545 1.417 5.44 2.125 8.683 2.125 5.24 0 9.63-2.063 13.174-6.19L56 52.677c-2.495 3.033-5.589 5.345-9.281 6.936C43.026 61.204 38.909 62 34.369 62z" fill="#000"/></g><g transform="rotate(1.5 -1180.263 6645.899)"><rect stroke="#000" stroke-width="1.5" fill="#FFF" x=".933" y="1.749" width="119.971" height="127.377" rx="4.978"/><path fill="#000" d="M27.034 41.785l-7.318 7.56v13.654H7.183V9h12.533v25.226L43.848 8.999H57.86L35.285 33.068l23.898 29.931H44.471z"/></g><g transform="rotate(2.5 -655.278 5403.924)"><rect stroke="#000" stroke-width="1.5" fill="#FFF" x=".885" y="1.749" width="119.971" height="138.377" rx="4.978"/><path d="M27.827 63c-4.088 0-8.04-.56-11.858-1.679-3.818-1.119-6.884-2.573-9.199-4.363l4.064-9.1c2.216 1.641 4.852 2.96 7.905 3.954 3.054.994 6.108 1.491 9.162 1.491 3.399 0 5.91-.51 7.536-1.529 1.625-1.02 2.438-2.374 2.438-4.065 0-1.243-.48-2.275-1.44-3.095-.961-.82-2.192-1.48-3.695-1.976-1.502-.498-3.534-1.045-6.095-1.641-3.94-.945-7.167-1.89-9.679-2.835-2.512-.944-4.667-2.46-6.465-4.55-1.797-2.088-2.696-4.872-2.696-8.353 0-3.033.812-5.78 2.438-8.242 1.625-2.461 4.076-4.413 7.351-5.855C20.87 9.72 24.872 9 29.6 9c3.3 0 6.527.398 9.679 1.194 3.152.795 5.91 1.939 8.275 3.43l-3.694 9.175c-4.778-2.735-9.556-4.102-14.334-4.102-3.35 0-5.824.546-7.425 1.64-1.6 1.094-2.401 2.536-2.401 4.326 0 1.79.923 3.12 2.77 3.99 1.848.87 4.667 1.729 8.46 2.574 3.94.945 7.167 1.89 9.679 2.834 2.512.945 4.667 2.437 6.465 4.475 1.797 2.039 2.696 4.799 2.696 8.28 0 2.983-.825 5.705-2.475 8.166-1.65 2.462-4.125 4.413-7.425 5.855C36.57 62.278 32.556 63 27.827 63z" fill="#000"/></g><g transform="rotate(6 148.675 2922.09)"><g transform="translate(1)"><mask id="logo_svg__c" fill="#fff"><use xlink:href="#logo_svg__b"/></mask><use fill="#D40000" xlink:href="#logo_svg__b"/><g mask="url(#logo_svg__c)"><g transform="translate(-1 24)" fill="#FFF"><use transform="rotate(120 76.5 51)" xlink:href="#logo_svg__d"/><use xlink:href="#logo_svg__e"/><use transform="rotate(60 76.5 51)" xlink:href="#logo_svg__f"/></g></g></g><g transform="translate(21 20)"><mask id="logo_svg__i" fill="#fff"><use xlink:href="#logo_svg__g"/></mask><use fill="#D40000" xlink:href="#logo_svg__g"/><use fill="#000" filter="url(#logo_svg__h)" xlink:href="#logo_svg__g"/><g mask="url(#logo_svg__i)" fill="#FFF"><path d="M48-5h15v120H48z"/><path d="M79.005-.712l12.99 7.5-60 103.924-12.99-7.5z"/><path d="M103.712 18.505l7.5 12.99-103.924 60-7.5-12.99z"/><path d="M115.5 47.5v15h-120v-15z"/><path d="M111.212 78.505l-7.5 12.99-103.924-60 7.5-12.99z"/><path d="M91.995 103.212l-12.99 7.5-60-103.924 12.99-7.5z"/></g><circle fill="#D40000" cx="55" cy="55" r="50"/></g><g fill="#FFF"><path d="M104.75 26.57s-.33-3.137-.995-6.986c-.445-2.575-.517-5.127.312-6.81.946-1.925 3.188-3.108 5.357-1.976 2.168 1.131 2.15 3.146 1.776 4.6 1.073-1.05 2.808-2.073 4.872-.762 2.064 1.312 2.16 3.846.968 5.627-1.044 1.56-3.29 2.773-5.743 3.676-3.666 1.348-6.547 2.63-6.547 2.63zM39.25 140.019c-.066-3.747-.264-7.466-1.13-11.044 3.532-1.04 6.852-2.728 10.13-4.545.066 3.747.264 7.466 1.13 11.045-3.532 1.04-6.852 2.728-10.13 4.544z"/></g><path d="M39.75 11.847c-.781 5.832-2.769 10.076-1.006 13.256.57 1.03 2.176 2.413 4.266 1.65 1.355-.498 2.527-2.383 1.499-4.245-.217-.364.22-.604.506-.1.781 1.487 1.252 3.47 1.197 5.338l4.076-2.353c-1.645-.886-3.127-2.286-4.024-3.705-.294-.5.133-.76.339-.39 1.099 1.822 3.318 1.75 4.425.825 1.707-1.428 1.312-3.51.705-4.52-1.873-3.116-6.542-3.516-11.983-5.756zM112.014 131.758c-.567-.184-.73-.384.115-.38 2.181.078 4.872-2.354 3.259-5.511-1.987-3.89-8.253-1.724-6.992 2.904.189.457-.185.66-.443.006-.846-1.688-1.183-3.529-1.294-5.449l-3.818 2.205c1.607 1.056 3.033 2.268 4.072 3.845.436.55.074.772-.227.38-3.377-3.405-8.386.938-6.01 4.603 1.926 2.975 5.378 1.862 6.401-.066.42-.733.51-.493.387.09-.86 4.003 2.535 6.558 5.785 4.769 3.177-1.922 2.662-6.14-1.235-7.396zM53.31 96.368c-4.459 0-8.478-.952-12.057-2.856-3.58-1.904-6.381-4.528-8.406-7.87-2.025-3.343-3.037-7.1-3.037-11.274 0-4.173 1.012-7.93 3.037-11.273s4.827-5.966 8.406-7.87c3.58-1.905 7.598-2.857 12.057-2.857 4.458 0 8.467.952 12.026 2.857 3.559 1.904 6.36 4.527 8.406 7.87 2.045 3.342 3.068 7.1 3.068 11.273s-1.023 7.931-3.068 11.274c-2.045 3.342-4.847 5.966-8.406 7.87s-7.568 2.856-12.026 2.856zm0-8c2.548 0 4.849-.593 6.904-1.78 2.055-1.188 3.668-2.845 4.839-4.97 1.171-2.125 1.757-4.541 1.757-7.25 0-2.708-.586-5.125-1.757-7.25-1.171-2.125-2.784-3.78-4.84-4.968-2.054-1.188-4.355-1.782-6.903-1.782-2.548 0-4.85.594-6.904 1.782-2.055 1.187-3.668 2.843-4.84 4.968-1.17 2.125-1.756 4.542-1.756 7.25 0 2.709.585 5.125 1.757 7.25 1.17 2.125 2.784 3.782 4.839 4.97 2.054 1.187 4.356 1.78 6.904 1.78zm56.045 7.01L101.081 83.4H91.95v11.979h-9.93v-43h18.572c3.8 0 7.1.634 9.898 1.904 2.8 1.27 4.954 3.071 6.466 5.406 1.512 2.334 2.268 5.098 2.268 8.292 0 3.195-.766 5.949-2.298 8.263-1.533 2.313-3.708 4.085-6.528 5.313l9.623 13.822h-10.665zm.038-27.467c0-2.418-.812-4.272-2.434-5.563-1.623-1.291-3.993-1.937-7.11-1.937h-8.456v15h8.455c3.118 0 5.488-.655 7.11-1.967 1.623-1.311 2.435-3.155 2.435-5.533z" fill="#FFF"/><circle stroke="#000" stroke-width="1.5" cx="75.899" cy="75.001" r="74.25"/></g><g transform="translate(39 117)"><rect stroke="#000" stroke-width="1.5" fill="url(#logo_svg__k)" x=".75" y=".75" width="364.5" height="88.5" rx="20"/><path d="M74.797 43.92c3.097.977 5.523 2.61 7.278 4.899 1.755 2.288 2.633 5.104 2.633 8.447 0 4.731-1.846 8.37-5.536 10.915C75.48 70.727 70.1 72 63.028 72H35V18h26.48c6.607 0 11.678 1.26 15.214 3.78 3.536 2.52 5.304 5.94 5.304 10.26 0 2.623-.633 4.963-1.897 7.02-1.265 2.057-3.033 3.677-5.304 4.86zM47.466 27.411V40.14H59.93c3.097 0 5.446-.54 7.046-1.62 1.6-1.08 2.4-2.674 2.4-4.783 0-2.108-.8-3.69-2.4-4.744-1.6-1.054-3.949-1.582-7.046-1.582H47.466zM62.099 62.59c3.304 0 5.794-.54 7.472-1.62 1.677-1.08 2.516-2.752 2.516-5.015 0-4.474-3.33-6.711-9.988-6.711H47.466v13.346h14.633zm72.161-.618V72H92.295V18h40.959v10.029H104.76v11.725h25.163v9.72h-25.163v12.497h29.5zM183.426 18h46.688v10.183H212.77V72h-12.543V28.183H166.082V72H153.54V28.183h-17.343V18h47.23zm91.517 43.971V72H232.98V18h40.958v10.029h-28.493v11.725h25.164v9.72h-25.164v12.497h29.5zM317.528 72l-10.453-15.043H295.54V72h-12.543V18h23.46c4.8 0 8.968.797 12.504 2.391 3.536 1.595 6.259 3.858 8.169 6.789 1.91 2.931 2.864 6.403 2.864 10.414 0 4.012-.967 7.47-2.903 10.376-1.936 2.906-4.684 5.13-8.246 6.673L331 72h-13.472zm-.232-34.406c0-3.034-.981-5.361-2.943-6.981-1.961-1.62-4.826-2.43-8.594-2.43h-10.22v18.823h10.22c3.768 0 6.633-.823 8.594-2.469 1.962-1.646 2.943-3.96 2.943-6.943z" fill="#000"/></g></g></svg>