<?xml version="1.0" encoding="UTF-8"?>
<svg width="260px" height="340px" viewBox="0 0 260 340" version="1.1" xmlns="http://www.w3.org/2000/svg" xmlns:xlink="http://www.w3.org/1999/xlink">
    <title>Jacks or Better Video Poker Game</title>
    <defs>
        <rect id="path-1" x="0" y="0" width="121.470937" height="169.876543" rx="4.97777778"></rect>
        <filter x="-25.1%" y="-13.8%" width="150.2%" height="135.9%" filterUnits="objectBoundingBox" id="filter-2">
            <feOffset dx="0" dy="7" in="SourceAlpha" result="shadowOffsetOuter1"></feOffset>
            <feGaussianBlur stdDeviation="9" in="shadowOffsetOuter1" result="shadowBlurOuter1"></feGaussianBlur>
            <feComposite in="shadowBlurOuter1" in2="SourceAlpha" operator="out" result="shadowBlurOuter1"></feComposite>
            <feColorMatrix values="0 0 0 0 0   0 0 0 0 0   0 0 0 0 0  0 0 0 0.3 0" type="matrix" in="shadowBlurOuter1" result="shadowMatrixOuter1"></feColorMatrix>
            <feOffset dx="0" dy="7" in="SourceAlpha" result="shadowOffsetOuter2"></feOffset>
            <feGaussianBlur stdDeviation="3.5" in="shadowOffsetOuter2" result="shadowBlurOuter2"></feGaussianBlur>
            <feComposite in="shadowBlurOuter2" in2="SourceAlpha" operator="out" result="shadowBlurOuter2"></feComposite>
            <feColorMatrix values="0 0 0 0 0   0 0 0 0 0   0 0 0 0 0  0 0 0 0.3 0" type="matrix" in="shadowBlurOuter2" result="shadowMatrixOuter2"></feColorMatrix>
            <feMerge>
                <feMergeNode in="shadowMatrixOuter1"></feMergeNode>
                <feMergeNode in="shadowMatrixOuter2"></feMergeNode>
            </feMerge>
        </filter>
        <rect id="path-3" x="0" y="0" width="121.470937" height="169.876543" rx="4.97777778"></rect>
        <filter x="-25.1%" y="-13.8%" width="150.2%" height="135.9%" filterUnits="objectBoundingBox" id="filter-4">
            <feOffset dx="0" dy="7" in="SourceAlpha" result="shadowOffsetOuter1"></feOffset>
            <feGaussianBlur stdDeviation="9" in="shadowOffsetOuter1" result="shadowBlurOuter1"></feGaussianBlur>
            <feComposite in="shadowBlurOuter1" in2="SourceAlpha" operator="out" result="shadowBlurOuter1"></feComposite>
            <feColorMatrix values="0 0 0 0 0   0 0 0 0 0   0 0 0 0 0  0 0 0 0.3 0" type="matrix" in="shadowBlurOuter1" result="shadowMatrixOuter1"></feColorMatrix>
            <feOffset dx="0" dy="7" in="SourceAlpha" result="shadowOffsetOuter2"></feOffset>
            <feGaussianBlur stdDeviation="3.5" in="shadowOffsetOuter2" result="shadowBlurOuter2"></feGaussianBlur>
            <feComposite in="shadowBlurOuter2" in2="SourceAlpha" operator="out" result="shadowBlurOuter2"></feComposite>
            <feColorMatrix values="0 0 0 0 0   0 0 0 0 0   0 0 0 0 0  0 0 0 0.3 0" type="matrix" in="shadowBlurOuter2" result="shadowMatrixOuter2"></feColorMatrix>
            <feMerge>
                <feMergeNode in="shadowMatrixOuter1"></feMergeNode>
                <feMergeNode in="shadowMatrixOuter2"></feMergeNode>
            </feMerge>
        </filter>
        <path d="M48.623895,11.1876774 C49.7629651,12.106432 50.59535,13.0835056 51.1210746,14.1189274 C51.6467993,15.1543493 52.0264836,16.3282959 52.260139,17.6408024 C52.5814152,19.81373 52.6544314,22.1798521 52.4791899,24.7392399 C52.3039483,27.2986277 51.865851,29.8397481 51.1648848,32.3626774 C50.4639186,34.8856067 49.5074062,37.2699579 48.2953188,39.5158024 C47.0832314,41.761647 45.5937006,43.6574614 43.8266816,45.2033024 C42.6291977,46.122057 41.3733187,46.7381967 40.0590071,47.0517399 C38.7446955,47.3652832 37.2332598,47.4345533 35.5246547,47.2595524 C34.3855846,47.1428852 33.2209759,46.9569495 32.0307937,46.7017399 C30.8406115,46.4465303 29.7490191,46.0637216 28.7559836,45.5533024 C27.9381897,45.1303836 27.142313,44.5908057 26.3683295,43.9345524 C25.5943459,43.2782991 24.9810097,42.5345566 24.5283024,41.7033024 C23.8127327,40.3324622 23.2760635,38.7793528 22.9182787,37.0439274 C22.5604939,35.3085021 22.3962074,33.4856036 22.4254143,31.5751774 C22.4546212,29.6647512 22.6773207,27.7142499 23.0935194,25.7236149 C23.509718,23.73298 24.1230543,21.7970618 24.9335464,19.9158024 C25.7440386,18.034543 26.74071,16.2517483 27.9235904,14.5673649 C29.1064709,12.8829815 30.4718742,11.3699758 32.0198412,10.0283024 C33.0712905,9.22621508 34.3235186,8.61736701 35.7765631,8.20173993 C37.2296077,7.78611285 38.613265,7.68038474 39.9275766,7.88455243 C41.6215783,8.14705374 43.2388875,8.56267458 44.7795528,9.13142743 C46.3202181,9.70018027 47.6016527,10.3855901 48.623895,11.1876774 Z M41.3952172,15.6720524 C40.7672684,15.4678847 40.0663127,15.7303821 39.2923292,16.4595524 C38.5183456,17.1887227 37.7407229,18.1803795 36.9594377,19.4345524 C36.1781524,20.6887254 35.4516411,22.0850656 34.7798818,23.6236149 C34.1081225,25.1621643 33.5605009,26.6460036 33.1370005,28.0751774 C32.7281035,29.4751844 32.4323879,30.9298574 32.2498446,32.4392399 C32.0673013,33.9486225 32.0052375,35.3522543 32.0636514,36.6501774 C32.1220652,37.9481006 32.3338122,39.0637144 32.6988988,39.9970524 C33.0639854,40.9303904 33.5897021,41.4991347 34.2760649,41.7033024 C34.9040138,41.9074701 35.5611597,41.7725756 36.2475224,41.2986149 C36.9338852,40.8246542 37.6202376,40.0918491 38.3066004,39.1001774 C38.9929631,38.1085058 39.6428074,36.8908096 40.2561529,35.4470524 C40.8694983,34.0032952 41.4025167,32.428311 41.855224,30.7220524 C42.234914,29.3220454 42.545233,27.7762276 42.7861901,26.0845524 C43.0271472,24.3928773 43.147624,22.8178931 43.147624,21.3595524 C43.147624,19.872045 43.0052424,18.5960161 42.7204748,17.5314274 C42.4357073,16.4668388 41.9939592,15.8470533 41.3952172,15.6720524 Z M62.4565487,36.1033024 C62.0330482,37.9262282 61.6497131,39.6725649 61.3065317,41.3423649 C60.9633504,43.0121649 60.623825,44.6564193 60.2879453,46.2751774 C60.1419107,46.7418464 59.9411161,47.0517392 59.6855555,47.2048649 C59.4299949,47.3579907 58.9590403,47.3616365 58.2726776,47.2158024 C57.4694871,46.9970513 56.7539282,46.8256989 56.1259793,46.7017399 C55.4980304,46.577781 54.8992974,46.3699706 54.3297624,46.0783024 C53.7602274,45.7574675 53.3732414,45.3637214 53.1687929,44.8970524 C52.9643445,44.4303834 52.8913282,43.810598 52.9497421,43.0376774 C53.0081559,42.410591 53.0884738,41.4991417 53.190698,40.3033024 C53.2929223,39.1074631 53.4170498,37.7585183 53.5630845,36.2564274 C53.7091191,34.7543366 53.8807072,33.1356028 54.0778539,31.4001774 C54.2750007,29.6647521 54.4867477,27.9293528 54.7131014,26.1939274 C54.939455,24.4585021 55.1877102,22.7777897 55.4578742,21.1517399 C55.7280383,19.5256901 56.0128015,18.0637256 56.3121725,16.7658024 C56.6115435,15.4678793 56.9364657,14.3923692 57.2869488,13.5392399 C57.6374319,12.6861107 58.0098146,12.1574701 58.4041081,11.9533024 C60.2587478,11.1220483 62.1973284,10.301744 64.2199079,9.49236493 C66.2424875,8.68298588 68.2321794,8.10694997 70.1890434,7.76423993 C72.1459074,7.42152988 74.0005193,7.39236351 75.7529348,7.67673993 C77.5053503,7.96111635 79.0386908,8.74496268 80.3530025,10.0283024 C81.4044518,11.1658081 82.3536626,12.3835043 83.2006634,13.6814274 C84.0476642,14.9793506 84.7121118,16.568918 85.1940261,18.4501774 C85.5883196,20.4481041 85.4422871,22.0887127 84.7559244,23.3720524 C83.7044751,25.4283127 81.9739908,27.3241271 79.5644194,29.0595524 C77.1548481,30.7949778 74.2780092,32.40642 70.9338163,33.8939274 C71.620179,34.6814314 72.3758968,35.5053815 73.2009925,36.3658024 C74.0260881,37.2262234 74.8694254,38.0902773 75.7310297,38.9579899 C76.592634,39.8257026 77.4505745,40.6642359 78.3048771,41.4736149 C79.1591797,42.282994 79.9587072,42.9866328 80.7034838,43.5845524 C81.3022258,44.0949716 81.5723858,44.4960093 81.5139719,44.7876774 C81.4555581,45.0793456 81.2000013,45.3928841 80.747294,45.7283024 C80.2069659,46.1512212 79.7506145,46.3991354 79.3782262,46.4720524 C79.0058379,46.5449695 78.5494866,46.625177 78.0091585,46.7126774 C77.3520026,46.8876783 76.6291421,46.9387195 75.8405551,46.8658024 C75.0519681,46.7928854 74.1319638,46.4428889 73.0805145,45.8158024 C72.3941518,45.33455 71.6019258,44.7366393 70.7038129,44.0220524 C69.8056999,43.3074655 68.878394,42.5163276 67.9218672,41.6486149 C66.9653404,40.7809023 66.0088279,39.8803904 65.0523011,38.9470524 C64.0957743,38.0137144 63.2305322,37.0658072 62.4565487,36.1033024 Z M67.2537621,17.9033024 C66.7718478,19.4199767 66.3081949,21.0460021 65.8627893,22.7814274 C65.4173836,24.5168528 64.9099209,26.3689176 64.3403859,28.3376774 C66.3994741,27.6522573 68.2285304,26.8100783 69.8276095,25.8111149 C71.4266886,24.8121516 72.7665362,23.7986201 73.8471925,22.7704899 C74.9278487,21.7423598 75.7054714,20.7652862 76.1800839,19.8392399 C76.6546965,18.9131936 76.8043797,18.1949716 76.6291382,17.6845524 C76.2640516,16.8532983 75.1980148,16.4376774 73.4309959,16.4376774 C72.5693916,16.4376774 71.6165299,16.5397597 70.5723824,16.7439274 C69.5282348,16.9480951 68.4220391,17.3345496 67.2537621,17.9033024 Z" id="path-5"></path>
        <filter x="-39.7%" y="-47.7%" width="179.4%" height="225.4%" filterUnits="objectBoundingBox" id="filter-6">
            <feMorphology radius="1" operator="dilate" in="SourceAlpha" result="shadowSpreadOuter1"></feMorphology>
            <feOffset dx="0" dy="6" in="shadowSpreadOuter1" result="shadowOffsetOuter1"></feOffset>
            <feGaussianBlur stdDeviation="3" in="shadowOffsetOuter1" result="shadowBlurOuter1"></feGaussianBlur>
            <feComposite in="shadowBlurOuter1" in2="SourceAlpha" operator="out" result="shadowBlurOuter1"></feComposite>
            <feColorMatrix values="0 0 0 0 0   0 0 0 0 0   0 0 0 0 0  0 0 0 0.3 0" type="matrix" in="shadowBlurOuter1" result="shadowMatrixOuter1"></feColorMatrix>
            <feMorphology radius="1" operator="dilate" in="SourceAlpha" result="shadowSpreadOuter2"></feMorphology>
            <feOffset dx="0" dy="6" in="shadowSpreadOuter2" result="shadowOffsetOuter2"></feOffset>
            <feGaussianBlur stdDeviation="7" in="shadowOffsetOuter2" result="shadowBlurOuter2"></feGaussianBlur>
            <feComposite in="shadowBlurOuter2" in2="SourceAlpha" operator="out" result="shadowBlurOuter2"></feComposite>
            <feColorMatrix values="0 0 0 0 0   0 0 0 0 0   0 0 0 0 0  0 0 0 0.3 0" type="matrix" in="shadowBlurOuter2" result="shadowMatrixOuter2"></feColorMatrix>
            <feMerge>
                <feMergeNode in="shadowMatrixOuter1"></feMergeNode>
                <feMergeNode in="shadowMatrixOuter2"></feMergeNode>
            </feMerge>
        </filter>
        <path d="M34.3780016,69.0582366 C35.9357043,69.8554628 37.2061865,70.9686461 38.1894863,72.3978199 C39.1727861,73.8269937 39.8201966,75.2998957 40.1317371,76.8165699 C40.3264499,78.6054678 40.0830625,80.1269803 39.4015676,81.3811533 C38.7200727,82.6353262 37.6199617,83.8554529 36.1012016,85.0415699 C35.0692236,85.9749079 33.8474189,86.8596213 32.4357508,87.6957366 C31.0240828,88.5318519 29.5296842,89.2853166 27.9525103,89.9561533 C26.3753363,90.6269899 24.7884505,91.2346228 23.1918053,91.7790699 C21.59516,92.3235171 20.0764227,92.7707348 18.6355478,93.1207366 C17.895639,93.315182 17.2530963,93.4512918 16.7079003,93.5290699 C16.1627044,93.6068481 15.6418554,93.6262923 15.1453377,93.5874033 C14.6488199,93.5485142 14.1620452,93.4464319 13.6849987,93.2811533 C13.2079523,93.1158747 12.6481613,92.8582383 12.0056089,92.5082366 C10.8178606,92.0026785 9.77129487,91.4582395 8.86588019,90.8749033 C7.96046552,90.291567 6.91389974,89.5429634 5.72615145,88.6290699 C5.29778322,88.1624009 4.91323114,87.7589327 4.57248368,87.4186533 C4.23173622,87.0783738 3.95914235,86.7186552 3.75469387,86.3394866 C3.55024539,85.960318 3.40908071,85.5325445 3.33119557,85.0561533 C3.25331044,84.579762 3.25331044,83.962407 3.33119557,83.2040699 C3.44802327,80.7346131 3.66707193,77.9346411 3.9883481,74.8040699 C4.30962428,71.6734987 4.66010212,68.426309 5.03979215,65.0624033 C5.41948217,61.6984975 5.76022452,58.315198 6.06202941,54.9124033 C6.3638343,51.5096085 6.55367647,48.2721408 6.6315616,45.1999033 C8.1503217,44.363788 9.90271092,43.590879 11.8887818,42.8811533 C13.8748527,42.1714275 15.9582488,41.5540725 18.1390325,41.0290699 C20.3198163,40.5040673 22.524906,40.1249044 24.754368,39.8915699 C26.9838299,39.6582354 29.1061679,39.5999027 31.1214458,39.7165699 C33.1367236,39.8332372 34.9816,40.1637894 36.6561304,40.7082366 C38.3306608,41.2526838 39.7033656,42.0401759 40.7742862,43.0707366 C42.1762186,44.451299 43.3444781,45.9387842 44.2790997,47.5332366 C45.2137213,49.127689 45.9049415,50.9846149 46.352781,53.1040699 C46.5474938,54.2512979 46.5328906,55.3644812 46.3089708,56.4436533 C46.0850511,57.5228253 45.7151023,58.5582316 45.1991132,59.5499033 C44.6831242,60.5415749 44.0454493,61.4651768 43.2860692,62.3207366 C42.5266892,63.1762964 41.7089075,63.9832328 40.8326998,64.7415699 C39.8786069,65.461018 38.9050573,66.1901773 37.9120219,66.9290699 C36.9189864,67.6679625 35.7409915,68.3776776 34.3780016,69.0582366 Z M18.5771342,64.7999033 C21.1278723,63.963788 23.410846,62.9672702 25.4261239,61.8103199 C27.4414017,60.6533697 29.1402457,59.4915758 30.5227068,58.3249033 C31.9051679,57.1582308 32.9127917,56.0450474 33.5456084,54.9853199 C34.1784251,53.9255924 34.4169448,53.0749065 34.2611745,52.4332366 C34.1054042,51.9276785 33.6673069,51.5436546 32.9468695,51.2811533 C32.226432,51.0186519 31.2966921,50.9165696 30.1576221,50.9749033 C29.018552,51.0332369 27.7139956,51.2617068 26.2439137,51.6603199 C24.7738318,52.058933 23.1820783,52.6568437 21.4686053,53.4540699 C20.9039381,55.1651896 20.4220311,56.9540606 20.0228698,58.8207366 C19.6237085,60.6874126 19.1418014,62.6804482 18.5771342,64.7999033 Z M16.3282122,74.7165699 C16.0166717,76.3888005 15.6856648,77.9929511 15.3351817,79.5290699 C14.9846986,81.0651887 14.6731628,82.6304508 14.4005648,84.2249033 C16.4839921,83.6999006 18.3824138,83.0679625 20.0958867,82.3290699 C21.8093596,81.5901773 23.2648162,80.8124073 24.4623002,79.9957366 C25.6597841,79.1790658 26.5457142,78.3672684 27.1201171,77.5603199 C27.6945199,76.7533714 27.9038331,76.0096289 27.7480628,75.3290699 C27.5338787,74.9207345 27.1298556,74.5561549 26.5359815,74.2353199 C25.9421073,73.914485 25.1486644,73.6957372 24.155629,73.5790699 C23.1625935,73.4624027 22.0089373,73.491569 20.6946257,73.6665699 C19.3803141,73.8415708 17.9248575,74.1915673 16.3282122,74.7165699 Z M116.877749,49.9957349 C115.354321,50.1478938 113.69719,50.313865 111.906311,50.4936533 C110.066275,50.6783764 108.172721,50.8679578 106.225592,51.0624033 C105.388327,54.4068644 104.521868,57.872802 103.626189,61.4603199 C102.73051,65.0478379 101.864051,68.6012745 101.026786,72.1207366 C100.189521,75.6401986 99.4058131,79.0721088 98.67564,82.4165699 C97.9454669,85.7610311 97.2980564,88.8915553 96.7333892,91.8082366 C96.6360328,92.3721283 96.4413229,92.741569 96.1492536,92.9165699 C95.8571844,93.0915708 95.4482936,93.1693478 94.9225689,93.1499033 C94.3968443,93.1304587 93.7981113,93.0186543 93.126352,92.8144866 C92.4545927,92.6103189 91.7000918,92.3915711 90.8628266,92.1582366 C90.0255614,91.9249021 89.2661928,91.6672658 88.5846979,91.3853199 C87.9032029,91.1033741 87.3336765,90.7630997 86.8761013,90.3644866 C86.4185261,89.9658735 86.092387,89.4992115 85.8976742,88.9644866 C85.7029614,88.4297617 85.6834904,87.7832404 85.8392606,87.0249033 C85.9560883,85.1193382 86.194608,82.771445 86.5548267,79.9811533 C86.9150455,77.1908615 87.3434073,74.2450577 87.839925,71.1436533 C88.3364427,68.0422489 88.8816305,64.9068635 89.4755046,61.7374033 C90.0693788,58.567943 90.6681117,55.6318612 91.2717215,52.9290699 C90.1229158,53.1235153 89.0082016,53.2887915 87.9275453,53.4249033 C86.8468891,53.561015 85.9463558,53.7262912 85.2259183,53.9207366 C84.2328828,54.1735156 83.4199689,54.2075431 82.7871522,54.0228199 C82.1543355,53.8380968 81.4387766,53.3276852 80.640454,52.4915699 C80.0657278,51.9176331 79.5231185,51.2406304 79.0126184,50.4605517 C78.777878,50.5119422 78.5174845,50.5570038 78.2314375,50.5957366 C75.8364696,50.8679602 73.3636538,51.1450407 70.8129156,51.4269866 C68.2621775,51.7089324 65.5751807,52.0443458 62.7518446,52.4332366 C62.1482348,54.2221344 61.5884439,56.0839214 61.0724548,58.0186533 C60.5564658,59.9533852 59.9772038,61.9804482 59.3346515,64.0999033 C60.5223998,63.9249024 61.714998,63.7985148 62.9124819,63.7207366 C64.1099658,63.6429584 65.3901835,63.5846257 66.7531734,63.5457366 C67.8630365,63.5068475 68.7343634,63.6089298 69.3671801,63.8519866 C69.9999968,64.0950434 70.5403168,64.615177 70.9881563,65.4124033 C71.4749384,66.2096295 71.849755,66.9922605 72.1126173,67.7603199 C72.3754796,68.5283793 72.6042638,69.3110104 72.7989766,70.1082366 C73.1105171,71.0415746 73.1348559,71.6686517 72.8719936,71.9894866 C72.6091312,72.3103215 71.9227788,72.5874021 70.8129156,72.8207366 C68.4179478,73.2485165 65.9792061,73.6617068 63.4966175,74.0603199 C61.0140289,74.458933 58.6142292,74.9012897 56.2971465,75.3874033 C55.9661347,76.6512985 55.6594665,77.8519809 55.3771329,78.9894866 C55.0947993,80.1269923 54.7978667,81.2498977 54.4863262,82.3582366 C56.3555694,82.0471239 58.1420328,81.7894876 59.8457701,81.5853199 C61.5495074,81.3811522 63.3943838,81.2207372 65.3804547,81.1040699 C66.4903179,81.0262918 67.3519093,81.1089298 67.9652547,81.3519866 C68.5786001,81.5950434 69.1091846,82.0762885 69.5570241,82.7957366 C70.0438062,83.5929628 70.4186228,84.3367054 70.6814851,85.0269866 C70.9443475,85.7172678 71.2315446,86.4221219 71.5430851,87.1415699 C71.7377979,87.9387961 71.7329302,88.4880962 71.5284817,88.7894866 C71.3240332,89.090877 70.6863583,89.3387912 69.6154377,89.5332366 C67.0646996,90.0193501 64.4750577,90.5151785 61.8464345,91.0207366 C59.2178112,91.5262947 56.7060534,92.0026788 54.3110855,92.4499033 C52.7144403,92.8582386 51.5072388,92.9505988 50.6894449,92.7269866 C49.871651,92.5033744 49.1609598,92.1971274 48.55735,91.8082366 C47.8953264,91.3610121 47.2527837,90.9089333 46.6297026,90.4519866 C46.0066216,89.9950399 45.2764594,89.4068513 44.4391942,88.6874033 C43.7576993,88.1429561 43.2271148,87.4915737 42.8474248,86.7332366 C42.4677347,85.9748995 42.3168346,85.0610197 42.3947197,83.9915699 L48.0900416,44.2665699 C49.8035145,43.8193455 51.7068039,43.3575445 53.7999669,42.8811533 C55.8931298,42.404762 58.0884841,41.9672664 60.3860955,41.5686533 C62.683707,41.1700402 65.0348292,40.8200437 67.4395327,40.5186533 C69.8442362,40.2172629 72.2440358,40.0276814 74.6390037,39.9499033 C76.9171438,39.9110142 78.3774682,40.7860054 79.0200205,42.5749033 C79.1373607,42.8002476 79.2465938,43.020107 79.3477198,43.2344819 C81.2908646,42.8821086 83.4206243,42.5504455 85.7370369,42.2394866 C88.7064076,41.8408735 91.7390145,41.4811549 94.8349486,41.1603199 C97.9308826,40.839485 100.96349,40.5672655 103.93286,40.3436533 C106.902231,40.120041 109.564889,39.9693481 111.920914,39.8915699 C113.147605,39.8915699 114.033535,39.9985133 114.578731,40.2124033 C115.123927,40.4262932 115.591231,40.795734 115.980657,41.3207366 C116.511897,41.9288836 116.982778,42.5736183 117.393304,43.2549493 C119.366671,42.8949448 121.53394,42.5564594 123.895151,42.2394866 C126.864522,41.8408735 129.897128,41.4811549 132.993063,41.1603199 C136.088997,40.839485 139.121603,40.5672655 142.090974,40.3436533 C145.060345,40.120041 147.723003,39.9693481 150.079028,39.8915699 C151.305719,39.8915699 152.191649,39.9985133 152.736845,40.2124033 C153.282041,40.4262932 153.749345,40.795734 154.138771,41.3207366 C154.937093,42.23463 155.599107,43.2311479 156.124831,44.3103199 C156.491685,45.0633723 156.796908,45.8045817 157.040504,46.5339589 L157.365577,44.2665699 C159.07905,43.8193455 160.982339,43.3575445 163.075502,42.8811533 C165.168665,42.404762 167.364019,41.9672664 169.661631,41.5686533 C171.959242,41.1700402 174.310364,40.8200437 176.715068,40.5186533 C179.119771,40.2172629 181.519571,40.0276814 183.914539,39.9499033 C186.192679,39.9110142 187.653003,40.7860054 188.295556,42.5749033 C188.801809,43.5471303 189.157155,44.4172605 189.361603,45.1853199 C189.566052,45.9533793 189.765629,46.7943431 189.960342,47.7082366 C190.116112,48.7582418 190.033361,49.4630959 189.712085,49.8228199 C189.390808,50.1825439 188.655778,50.4401803 187.506973,50.5957366 C185.112005,50.8679602 182.639189,51.1450407 180.088451,51.4269866 C177.537713,51.7089324 174.850716,52.0443458 172.02738,52.4332366 C171.42377,54.2221344 170.863979,56.0839214 170.34799,58.0186533 C169.832001,59.9533852 169.252739,61.9804482 168.610187,64.0999033 C169.797935,63.9249024 170.990533,63.7985148 172.188017,63.7207366 C173.385501,63.6429584 174.665719,63.5846257 176.028709,63.5457366 C177.138572,63.5068475 178.009899,63.6089298 178.642715,63.8519866 C179.275532,64.0950434 179.815852,64.615177 180.263692,65.4124033 C180.750474,66.2096295 181.12529,66.9922605 181.388153,67.7603199 C181.651015,68.5283793 181.879799,69.3110104 182.074512,70.1082366 C182.386052,71.0415746 182.410391,71.6686517 182.147529,71.9894866 C181.884666,72.3103215 181.198314,72.5874021 180.088451,72.8207366 C177.693483,73.2485165 175.254741,73.6617068 172.772153,74.0603199 C170.289564,74.458933 167.889764,74.9012897 165.572682,75.3874033 C165.24167,76.6512985 164.935002,77.8519809 164.652668,78.9894866 C164.370335,80.1269923 164.073402,81.2498977 163.761861,82.3582366 C165.631105,82.0471239 167.417568,81.7894876 169.121305,81.5853199 C170.825043,81.3811522 172.669919,81.2207372 174.65599,81.1040699 C175.765853,81.0262918 176.627444,81.1089298 177.24079,81.3519866 C177.854135,81.5950434 178.38472,82.0762885 178.832559,82.7957366 C179.319341,83.5929628 179.694158,84.3367054 179.95702,85.0269866 C180.219883,85.7172678 180.50708,86.4221219 180.81862,87.1415699 C181.013333,87.9387961 181.008465,88.4880962 180.804017,88.7894866 C180.599568,89.090877 179.961894,89.3387912 178.890973,89.5332366 C176.340235,90.0193501 173.750593,90.5151785 171.12197,91.0207366 C168.493346,91.5262947 165.981589,92.0026788 163.586621,92.4499033 C161.989975,92.8582386 160.782774,92.9505988 159.96498,92.7269866 C159.147186,92.5033744 158.436495,92.1971274 157.832885,91.8082366 C157.170862,91.3610121 156.528319,90.9089333 155.905238,90.4519866 C155.282157,89.9950399 154.551995,89.4068513 153.714729,88.6874033 C153.033235,88.1429561 152.50265,87.4915737 152.12296,86.7332366 C151.74327,85.9748995 151.59237,85.0610197 151.670255,83.9915699 L156.574812,49.78217 C156.217764,49.8790917 155.746497,49.9461137 155.161008,49.9832366 C153.603305,50.1387929 151.904461,50.3089301 150.064425,50.4936533 C148.224389,50.6783764 146.330835,50.8679578 144.383706,51.0624033 C143.546441,54.4068644 142.679982,57.872802 141.784303,61.4603199 C140.888624,65.0478379 140.022165,68.6012745 139.1849,72.1207366 C138.347634,75.6401986 137.563927,79.0721088 136.833754,82.4165699 C136.103581,85.7610311 135.45617,88.8915553 134.891503,91.8082366 C134.794147,92.3721283 134.599437,92.741569 134.307368,92.9165699 C134.015298,93.0915708 133.606408,93.1693478 133.080683,93.1499033 C132.554958,93.1304587 131.956225,93.0186543 131.284466,92.8144866 C130.612707,92.6103189 129.858206,92.3915711 129.020941,92.1582366 C128.183675,91.9249021 127.424307,91.6672658 126.742812,91.3853199 C126.061317,91.1033741 125.49179,90.7630997 125.034215,90.3644866 C124.57664,89.9658735 124.250501,89.4992115 124.055788,88.9644866 C123.861075,88.4297617 123.841604,87.7832404 123.997375,87.0249033 C124.114202,85.1193382 124.352722,82.771445 124.712941,79.9811533 C125.073159,77.1908615 125.501521,74.2450577 125.998039,71.1436533 C126.494557,68.0422489 127.039744,64.9068635 127.633619,61.7374033 C128.227493,58.567943 128.826226,55.6318612 129.429835,52.9290699 C128.28103,53.1235153 127.166316,53.2887915 126.085659,53.4249033 C125.005003,53.561015 124.10447,53.7262912 123.384032,53.9207366 C122.390997,54.1735156 121.578083,54.2075431 120.945266,54.0228199 C120.312449,53.8380968 119.596891,53.3276852 118.798568,52.4915699 C118.112538,51.8064823 117.472269,50.9745431 116.877749,49.9957349 Z M198.70723,77.9540699 C198.142562,80.3846376 197.631449,82.7130866 197.173874,84.9394866 C196.716299,87.1658866 196.263598,89.3582258 195.815759,91.5165699 C195.621046,92.1387953 195.35332,92.5519856 195.012572,92.7561533 C194.671825,92.9603209 194.043885,92.965182 193.128735,92.7707366 C192.057814,92.4790685 191.103736,92.2505985 190.266471,92.0853199 C189.429205,91.9200413 188.630895,91.6429608 187.871515,91.2540699 C187.112135,90.82629 186.596153,90.3012953 186.323555,89.6790699 C186.050957,89.0568446 185.953602,88.230464 186.031488,87.1999033 C186.109373,86.363788 186.216463,85.1485223 186.352762,83.5540699 C186.489061,81.9596175 186.654565,80.1610244 186.849277,78.1582366 C187.04399,76.1554488 187.272774,73.997137 187.535637,71.6832366 C187.798499,69.3693361 188.080828,67.0554704 188.382633,64.7415699 C188.684438,62.4276695 189.015445,60.1867197 189.375664,58.0186533 C189.735883,55.8505869 190.115567,53.9013008 190.514728,52.1707366 C190.913889,50.4401724 191.347119,49.0061589 191.81443,47.8686533 C192.281741,46.7311476 192.778251,46.0262935 193.303976,45.7540699 C195.776829,44.645731 198.361603,43.551992 201.058375,42.4728199 C203.755148,41.3936479 206.408071,40.6256 209.017223,40.1686533 C211.626375,39.7117065 214.099191,39.672818 216.435745,40.0519866 C218.772299,40.4311552 220.816753,41.4762836 222.569168,43.1874033 C223.971101,44.7040775 225.236715,46.3276724 226.366049,48.0582366 C227.495384,49.7888008 228.381314,51.908224 229.023866,54.4165699 C229.549591,57.0804721 229.354881,59.2679503 228.439731,60.9790699 C227.037798,63.7207503 224.730486,66.2485028 221.517724,68.5624033 C218.304962,70.8763037 214.469177,73.0248933 210.010253,75.0082366 C210.925403,76.0582418 211.933027,77.156842 213.033155,78.3040699 C214.133282,79.4512979 215.257732,80.6033697 216.406538,81.7603199 C217.555343,82.9172702 218.699264,84.0353145 219.838334,85.1144866 C220.977404,86.1936587 222.043441,87.1318437 223.036477,87.9290699 C223.834799,88.6096289 224.195013,89.1443458 224.117127,89.5332366 C224.039242,89.9221274 223.6985,90.3401788 223.09489,90.7874033 C222.374453,91.351295 221.765984,91.6818472 221.269466,91.7790699 C220.772949,91.8762926 220.16448,91.983236 219.444043,92.0999033 C218.567835,92.3332378 217.604021,92.4012926 216.552572,92.3040699 C215.501122,92.2068472 214.27445,91.7401852 212.872517,90.9040699 C211.957367,90.2624 210.901066,89.4651858 209.703582,88.5124033 C208.506098,87.5596207 207.26969,86.5047702 205.994321,85.3478199 C204.718952,84.1908697 203.443602,82.9901873 202.168233,81.7457366 C200.892864,80.5012859 199.739208,79.2374097 198.70723,77.9540699 Z M205.103514,53.6874033 C204.460962,55.7096356 203.842758,57.8776695 203.248884,60.1915699 C202.65501,62.5054704 201.978393,64.9748901 201.219013,67.5999033 C203.964464,66.6860098 206.403205,65.5631044 208.535311,64.2311533 C210.667416,62.8992022 212.45388,61.5478268 213.894755,60.1769866 C215.33563,58.8061464 216.37246,57.5033817 217.005277,56.2686533 C217.638093,55.0339249 217.837671,54.0762955 217.604016,53.3957366 C217.117234,52.2873977 215.695851,51.7332366 213.339826,51.7332366 C212.19102,51.7332366 210.920538,51.8693463 209.528341,52.1415699 C208.136145,52.4137935 206.661217,52.9290661 205.103514,53.6874033 Z" id="path-7"></path>
        <filter x="-13.9%" y="-45.4%" width="127.9%" height="216.8%" filterUnits="objectBoundingBox" id="filter-8">
            <feMorphology radius="1" operator="dilate" in="SourceAlpha" result="shadowSpreadOuter1"></feMorphology>
            <feOffset dx="0" dy="7" in="shadowSpreadOuter1" result="shadowOffsetOuter1"></feOffset>
            <feGaussianBlur stdDeviation="3.5" in="shadowOffsetOuter1" result="shadowBlurOuter1"></feGaussianBlur>
            <feComposite in="shadowBlurOuter1" in2="SourceAlpha" operator="out" result="shadowBlurOuter1"></feComposite>
            <feColorMatrix values="0 0 0 0 0   0 0 0 0 0   0 0 0 0 0  0 0 0 0.3 0" type="matrix" in="shadowBlurOuter1" result="shadowMatrixOuter1"></feColorMatrix>
            <feMorphology radius="1" operator="dilate" in="SourceAlpha" result="shadowSpreadOuter2"></feMorphology>
            <feOffset dx="0" dy="7" in="shadowSpreadOuter2" result="shadowOffsetOuter2"></feOffset>
            <feGaussianBlur stdDeviation="9" in="shadowOffsetOuter2" result="shadowBlurOuter2"></feGaussianBlur>
            <feComposite in="shadowBlurOuter2" in2="SourceAlpha" operator="out" result="shadowBlurOuter2"></feComposite>
            <feColorMatrix values="0 0 0 0 0   0 0 0 0 0   0 0 0 0 0  0 0 0 0.3 0" type="matrix" in="shadowBlurOuter2" result="shadowMatrixOuter2"></feColorMatrix>
            <feMerge>
                <feMergeNode in="shadowMatrixOuter1"></feMergeNode>
                <feMergeNode in="shadowMatrixOuter2"></feMergeNode>
            </feMerge>
        </filter>
    </defs>
    <g id="logo" stroke="none" stroke-width="1" fill="none" fill-rule="evenodd">
        <g transform="translate(-6.000000, -23.000000)">
            <g id="cards" transform="translate(137.500000, 140.000000) rotate(29.000000) translate(-137.500000, -140.000000) translate(40.000000, 34.000000)">
                <g id="jackred" transform="translate(89.555066, 102.145950) rotate(-23.000000) translate(-89.555066, -102.145950) translate(28.555066, 17.145950)">
                    <g id="Rectangle-Copy-2">
                        <use fill="black" fill-opacity="1" filter="url(#filter-2)" xlink:href="#path-1"></use>
                        <rect stroke="#000000" stroke-width="1.42222222" stroke-linejoin="square" fill="#FFFFFF" fill-rule="evenodd" x="0.711111111" y="0.711111111" width="120.048715" height="168.454321" rx="4.97777778"></rect>
                    </g>
                    <path d="M14.7951601,34.5577425 C12.9744367,34.5577425 11.3011912,34.225355 9.77537367,33.5605699 C8.2495561,32.8957849 6.99943021,31.948794 6.02495848,30.7195688 L9.48688019,26.6556202 C10.9485878,28.5872597 12.6154223,29.553065 14.4874338,29.553065 C17.026189,29.553065 18.2955476,28.0980856 18.2955476,25.1880832 L18.2955476,12.6575749 L8.83296164,12.6575749 L8.83296164,7.76578483 L24.4885409,7.76578483 L24.4885409,24.8494208 C24.4885409,28.0855442 23.6679455,30.5126004 22.0267299,32.1306621 C20.3855144,33.7487238 17.9750152,34.5577425 14.7951601,34.5577425 Z" id="J" fill="#D40000"></path>
                    <path d="M105.946951,162.207831 C104.126228,162.207831 102.452982,161.875443 100.927165,161.210658 C99.4013473,160.545873 98.1512214,159.598882 97.1767497,158.369657 L100.638671,154.305708 C102.100379,156.237348 103.767214,157.203153 105.639225,157.203153 C108.17798,157.203153 109.447339,155.748174 109.447339,152.838171 L109.447339,140.307663 L99.9847529,140.307663 L99.9847529,135.415873 L115.640332,135.415873 L115.640332,152.499509 C115.640332,155.735632 114.819737,158.162689 113.178521,159.78075 C111.537306,161.398812 109.126806,162.207831 105.946951,162.207831 Z" id="J-Copy" fill="#D40000" transform="translate(106.408541, 148.811852) rotate(-180.000000) translate(-106.408541, -148.811852) "></path>
                    <ellipse id="Oval-Copy" stroke="#D40000" stroke-width="4.8" cx="58.3754618" cy="87.295742" rx="43.3130656" ry="43.2665155"></ellipse>
                    <ellipse id="Oval-Copy-2" stroke="#D40000" stroke-width="4.8" cx="63.0954753" cy="82.5808012" rx="43.3130656" ry="43.2665155"></ellipse>
                    <path d="M60.7354266,104.838095 C60.7354266,104.838095 56.8920482,98.4904905 51.7075273,91.0274011 C48.2391565,86.0331586 45.4662705,80.6253231 45.2084694,75.9673047 C44.9127805,70.646332 47.7116937,65.3081459 52.7789257,65.0494233 C57.843112,64.7908499 59.8986848,69.1521287 60.7354266,72.7478447 C61.5722507,69.1521287 63.6278235,64.7908499 68.6920097,65.0494233 C73.7592434,65.3081459 76.5581566,70.646332 76.2624678,75.9673047 C76.0046666,80.6253231 73.2317807,86.0331586 69.7634082,91.0274011 C64.5788873,98.4904905 60.7354266,104.838095 60.7354266,104.838095 Z" id="path9850-2-3-copy" fill="#D40000"></path>
                </g>
                <g id="jackblack" transform="translate(121.185736, 117.620081) rotate(-9.000000) translate(-121.185736, -117.620081) translate(60.185736, 32.620081)">
                    <g id="Rectangle-Copy-2">
                        <use fill="black" fill-opacity="1" filter="url(#filter-4)" xlink:href="#path-3"></use>
                        <rect stroke="#000000" stroke-width="1.42222222" stroke-linejoin="square" fill="#FFFFFF" fill-rule="evenodd" x="0.711111111" y="0.711111111" width="120.048715" height="168.454321" rx="4.97777778"></rect>
                    </g>
                    <path d="M45.1881568,90.4539985 C45.1444566,93.0756001 46.5723411,97.5314473 51.044859,98.3843294 C53.946553,98.9351111 57.9416262,96.6038267 58.0250539,91.8675765 C58.0123411,90.9246312 59.0308738,90.9491365 59.0213392,92.2412053 C58.8846768,95.9771157 57.6933296,100.326739 55.6910654,103.867372 C58.8920661,103.867372 62.0929873,103.867372 65.293988,103.867372 C63.2917238,100.326739 62.1003766,95.9771157 61.9637141,92.2412053 C61.9541795,90.9491365 62.9727123,90.9246312 62.9599995,91.8675765 C63.0434272,96.6038267 67.0385004,98.9351111 69.9401944,98.3843294 C74.4127123,97.5314473 75.8405968,93.0756001 75.7968966,90.4539985 C75.6665905,82.3580538 67.8230384,76.3863564 60.4925267,66.0091711 C53.162015,76.3863564 45.3184629,82.3580538 45.1881568,90.4539985 Z" id="path6844-7-0-copy" fill="#000000"></path>
                    <path d="M14.7951601,34.5577425 C12.9744367,34.5577425 11.3011912,34.225355 9.77537367,33.5605699 C8.2495561,32.8957849 6.99943021,31.948794 6.02495848,30.7195688 L9.48688019,26.6556202 C10.9485878,28.5872597 12.6154223,29.553065 14.4874338,29.553065 C17.026189,29.553065 18.2955476,28.0980856 18.2955476,25.1880832 L18.2955476,12.6575749 L8.83296164,12.6575749 L8.83296164,7.76578483 L24.4885409,7.76578483 L24.4885409,24.8494208 C24.4885409,28.0855442 23.6679455,30.5126004 22.0267299,32.1306621 C20.3855144,33.7487238 17.9750152,34.5577425 14.7951601,34.5577425 Z" id="J" fill="#000000"></path>
                    <path d="M105.946951,162.207831 C104.126228,162.207831 102.452982,161.875443 100.927165,161.210658 C99.4013473,160.545873 98.1512214,159.598882 97.1767497,158.369657 L100.638671,154.305708 C102.100379,156.237348 103.767214,157.203153 105.639225,157.203153 C108.17798,157.203153 109.447339,155.748174 109.447339,152.838171 L109.447339,140.307663 L99.9847529,140.307663 L99.9847529,135.415873 L115.640332,135.415873 L115.640332,152.499509 C115.640332,155.735632 114.819737,158.162689 113.178521,159.78075 C111.537306,161.398812 109.126806,162.207831 105.946951,162.207831 Z" id="J-Copy" fill="#000000" transform="translate(106.408541, 148.811852) rotate(-180.000000) translate(-106.408541, -148.811852) "></path>
                    <ellipse id="Oval-Copy" stroke="#000000" stroke-width="4.8" cx="58.3754618" cy="87.295742" rx="43.3130656" ry="43.2665155"></ellipse>
                    <ellipse id="Oval-Copy-2" stroke="#000000" stroke-width="4.8" cx="63.0954753" cy="82.5808012" rx="43.3130656" ry="43.2665155"></ellipse>
                </g>
            </g>
            <g id="logotype" transform="translate(21.000000, 224.000000)">
                <g id="or" transform="translate(53.915965, 27.418440) rotate(-13.000000) translate(-53.915965, -27.418440) ">
                    <use fill="black" fill-opacity="1" filter="url(#filter-6)" xlink:href="#path-5"></use>
                    <use fill="#FFFFFF" fill-rule="evenodd" xlink:href="#path-5"></use>
                </g>
                <g id="Better" transform="translate(116.292188, 66.632542) rotate(-13.000000) translate(-116.292188, -66.632542) ">
                    <use fill="black" fill-opacity="1" filter="url(#filter-8)" xlink:href="#path-7"></use>
                    <use fill="#FFFFFF" fill-rule="evenodd" xlink:href="#path-7"></use>
                </g>
            </g>
        </g>
    </g>
</svg>