<?xml version="1.0" encoding="UTF-8"?>
<svg width="475px" height="225px" viewBox="0 0 475 225" version="1.1" xmlns="http://www.w3.org/2000/svg" xmlns:xlink="http://www.w3.org/1999/xlink">
    <title>Jacks or Better Video Poker Game</title>
    <defs>
        <filter x="-8.5%" y="-18.8%" width="117.1%" height="137.5%" filterUnits="objectBoundingBox" id="filter-1">
            <feOffset dx="0" dy="10" in="SourceAlpha" result="shadowOffsetOuter1"></feOffset>
            <feGaussianBlur stdDeviation="5" in="shadowOffsetOuter1" result="shadowBlurOuter1"></feGaussianBlur>
            <feColorMatrix values="0 0 0 0 0   0 0 0 0 0   0 0 0 0 0  0 0 0 0.5 0" type="matrix" in="shadowBlurOuter1" result="shadowMatrixOuter1"></feColorMatrix>
            <feMerge>
                <feMergeNode in="shadowMatrixOuter1"></feMergeNode>
                <feMergeNode in="SourceGraphic"></feMergeNode>
            </feMerge>
        </filter>
        <circle id="path-2" cx="75" cy="75" r="75"></circle>
        <rect id="path-4" x="64" y="-29" width="25" height="160"></rect>
        <rect id="path-6" x="64" y="-24" width="25" height="150"></rect>
        <rect id="path-8" x="64" y="-29" width="25" height="160"></rect>
        <path d="M55,110 C24.6243388,110 0,85.3756612 0,55 C0,24.6243388 24.6243388,0 55,0 C85.3756612,0 110,24.6243388 110,55 C110,85.3756612 85.3756612,110 55,110 Z M55,105 C82.6142375,105 105,82.6142375 105,55 C105,27.3857625 82.6142375,5 55,5 C27.3857625,5 5,27.3857625 5,55 C5,82.6142375 27.3857625,105 55,105 Z" id="path-10"></path>
        <filter x="-1.8%" y="-1.8%" width="103.6%" height="103.6%" filterUnits="objectBoundingBox" id="filter-12">
            <feGaussianBlur stdDeviation="1.5" in="SourceAlpha" result="shadowBlurInner1"></feGaussianBlur>
            <feOffset dx="0" dy="1" in="shadowBlurInner1" result="shadowOffsetInner1"></feOffset>
            <feComposite in="shadowOffsetInner1" in2="SourceAlpha" operator="arithmetic" k2="-1" k3="1" result="shadowInnerInner1"></feComposite>
            <feColorMatrix values="0 0 0 0 0   0 0 0 0 0   0 0 0 0 0  0 0 0 0.3 0" type="matrix" in="shadowInnerInner1"></feColorMatrix>
        </filter>
        <circle id="path-13" cx="75.8994898" cy="75.0010153" r="75"></circle>
        <linearGradient x1="50%" y1="100%" x2="50%" y2="2.40923049%" id="linearGradient-15">
            <stop stop-color="#FBD023" offset="0%"></stop>
            <stop stop-color="#FFF4A2" offset="100%"></stop>
        </linearGradient>
    </defs>
    <g id="logo" stroke="none" stroke-width="1" fill="none" fill-rule="evenodd">
        <g id="logo-group" filter="url(#filter-1)" transform="translate(16.000000, -3.000000)">
            <g id="cards" transform="translate(181.497927, 109.245143) rotate(-2.000000) translate(-181.497927, -109.245143) translate(2.997927, 32.245143)">
                <g id="j" transform="translate(62.782183, 77.467270) rotate(-1.000000) translate(-62.782183, -77.467270) translate(1.782183, 5.967270)">
                    <rect id="Rectangle-Copy-2" stroke="#000000" stroke-width="1.5" fill="#FFFFFF" x="0.75" y="0.75" width="119.970937" height="141.376543" rx="4.97777778"></rect>
                    <path d="M23.575,62 C19.9263706,62 16.5732792,61.3300629 13.515625,59.9901685 C10.4579708,58.6502742 7.95278754,56.7415854 6,54.2640449 L12.9375,46.0730337 C15.8666813,49.9663116 19.2069257,51.9129213 22.9583333,51.9129213 C28.0458588,51.9129213 30.5895833,48.9803664 30.5895833,43.1151685 L30.5895833,17.8595506 L11.6270833,17.8595506 L11.6270833,8 L43,8 L43,42.4325843 C43,48.9550888 41.355572,53.8468938 38.0666667,57.1081461 C34.7777613,60.3693983 29.9472541,62 23.575,62 Z" id="J" fill="#000000"></path>
                </g>
                <g id="a" transform="translate(109.616106, 70.493299) rotate(1.000000) translate(-109.616106, -70.493299) translate(48.616106, 2.993299)">
                    <rect id="Rectangle-Copy-2" stroke="#000000" stroke-width="1.5" fill="#FFFFFF" x="0.75" y="0.75" width="119.970937" height="133.376543" rx="4.97777778"></rect>
                    <path d="M48.3369324,50.4285714 L23.0821554,50.4285714 L18.264321,62 L5.3649579,62 L29.6095439,8 L42.0426649,8 L66.3649579,62 L53.1547668,62 L48.3369324,50.4285714 Z M44.3738751,40.94 L35.7483974,20.2657143 L27.1229197,40.94 L44.3738751,40.94 Z" id="A" fill="#000000"></path>
                </g>
                <g id="c" transform="translate(170.229893, 69.329462) rotate(2.000000) translate(-170.229893, -69.329462) translate(109.229893, 2.829462)">
                    <rect id="Rectangle-Copy-2" stroke="#000000" stroke-width="1.5" fill="#FFFFFF" x="0.75" y="0.75" width="119.970937" height="131.376543" rx="4.97777778"></rect>
                    <path d="M34.3682635,62 C29.0289154,62 24.2011194,60.8439342 19.8847305,58.531768 C15.5683417,56.2196017 12.1751621,53.0124515 9.70508982,48.910221 C7.23501759,44.8079905 6,40.1712966 6,35 C6,29.8287034 7.23501759,25.1920095 9.70508982,21.089779 C12.1751621,16.9875485 15.5683417,13.7803983 19.8847305,11.468232 C24.2011194,9.15606579 29.0538653,8 34.4431138,8 C38.9840546,8 43.088305,8.79557215 46.755988,10.3867403 C50.423671,11.9779085 53.5049775,14.2651785 56,17.2486188 L48.2155689,24.4088398 C44.672637,20.3314713 40.2814633,18.2928177 35.0419162,18.2928177 C31.798387,18.2928177 28.9042043,19.0013741 26.3592814,20.4185083 C23.8143585,21.8356424 21.8308454,23.812142 20.4086826,26.3480663 C18.9865198,28.8839906 18.2754491,31.7679396 18.2754491,35 C18.2754491,38.2320604 18.9865198,41.1160094 20.4086826,43.6519337 C21.8308454,46.187858 23.8143585,48.1643576 26.3592814,49.5814917 C28.9042043,50.9986259 31.798387,51.7071823 35.0419162,51.7071823 C40.2814633,51.7071823 44.672637,49.643667 48.2155689,45.5165746 L56,52.6767956 C53.5049775,55.7099599 50.4111961,58.0220915 46.7185629,59.6132597 C43.0259296,61.2044278 38.9092043,62 34.3682635,62 Z" id="C" fill="#000000"></path>
                </g>
                <g id="k" transform="translate(230.144750, 69.300125) rotate(3.500000) translate(-230.144750, -69.300125) translate(169.144750, 4.300125)">
                    <rect id="Rectangle-Copy-2" stroke="#000000" stroke-width="1.5" fill="#FFFFFF" x="0.933257245" y="1.74920038" width="119.970937" height="127.376543" rx="4.97777778"></rect>
                    <polygon id="K" fill="#000000" points="27.0335566 41.7849147 19.7161914 49.3449147 19.7161914 62.9992004 7.18325725 62.9992004 7.18325725 8.99920038 19.7161914 8.99920038 19.7161914 34.2249147 43.8479279 8.99920038 57.859904 8.99920038 35.2850537 33.0677718 59.1832572 62.9992004 44.4706824 62.9992004"></polygon>
                </g>
                <g id="s" transform="translate(289.977745, 78.466131) rotate(4.500000) translate(-289.977745, -78.466131) translate(228.977745, 7.966131)">
                    <rect id="Rectangle-Copy-2" stroke="#000000" stroke-width="1.5" fill="#FFFFFF" x="0.8852613" y="1.74940981" width="119.970937" height="138.376543" rx="4.97777778"></rect>
                    <path d="M27.8270044,62.9994098 C23.7387824,62.9994098 19.7860728,62.4400231 15.968757,61.321233 C12.1514412,60.2024429 9.0853207,58.7480375 6.7703034,56.9579733 L10.8338773,47.8585258 C13.0503832,49.499418 15.685523,50.8170844 18.7393756,51.8115645 C21.7932282,52.8060446 24.847035,53.3032772 27.9008876,53.3032772 C31.29953,53.3032772 33.8115324,52.7936138 35.4369701,51.7742717 C37.0624077,50.7549296 37.8751144,49.3999707 37.8751144,47.7093546 C37.8751144,46.4662544 37.3948786,45.4344968 36.4343927,44.6140507 C35.4739068,43.7936046 34.2425331,43.1347714 32.7402347,42.6375314 C31.2379362,42.1402913 29.2061696,41.5933354 26.6448738,40.9966474 C22.7044189,40.0518913 19.4782197,39.1071493 16.9661797,38.1623932 C14.4541396,37.2176371 12.2992356,35.7010777 10.5014031,33.6126695 C8.70357047,31.5242612 7.80466766,28.7397587 7.80466766,25.2590783 C7.80466766,22.225914 8.61737431,19.4787039 10.242812,17.0173656 C11.8682497,14.5560273 14.3186834,12.6043894 17.5941866,11.1623932 C20.8696898,9.72039707 24.8716543,8.99940981 29.6002003,8.99940981 C32.9003314,8.99940981 36.1265305,9.39719588 39.2788945,10.19278 C42.4312585,10.9883641 45.1895356,12.131999 47.5538086,13.6237192 L43.8596505,22.7977523 C39.0818488,20.062932 34.3041188,18.6955424 29.5263171,18.6955424 C26.1769304,18.6955424 23.7018693,19.2424983 22.1010594,20.3364264 C20.5002496,21.4303545 19.6998567,22.872329 19.6998567,24.6623932 C19.6998567,26.4524574 20.6233869,27.7825546 22.4704752,28.6527247 C24.3175635,29.5228948 27.1374093,30.3806211 30.9300972,31.2259291 C34.8705522,32.1706852 38.0967513,33.1154272 40.6087914,34.0601833 C43.1208314,35.0049394 45.2757354,36.4966372 47.073568,38.5353214 C48.8714006,40.5740056 49.7703034,43.3336465 49.7703034,46.8143269 C49.7703034,49.7977673 48.945283,52.5201157 47.2952175,54.981454 C45.645152,57.4427923 43.1700908,59.3944302 39.8699598,60.8364264 C36.5698287,62.2784225 32.5555504,62.9994098 27.8270044,62.9994098 Z" id="S" fill="#000000"></path>
                </g>
            </g>
            <g id="chip" transform="translate(373.450475, 83.444997) rotate(6.000000) translate(-373.450475, -83.444997) translate(297.950475, 7.944997)">
                <g id="outer" transform="translate(1.000000, -0.000000)">
                    <mask id="mask-3" fill="white">
                        <use xlink:href="#path-2"></use>
                    </mask>
                    <use id="base" fill="#D40000" xlink:href="#path-2"></use>
                    <g id="stripes" mask="url(#mask-3)">
                        <g transform="translate(-1.000000, 24.000000)">
                            <mask id="mask-5" fill="white">
                                <use xlink:href="#path-4"></use>
                            </mask>
                            <use id="Mask-Copy-2" stroke="none" fill="#FFFFFF" fill-rule="evenodd" transform="translate(76.500000, 51.000000) rotate(120.000000) translate(-76.500000, -51.000000) " xlink:href="#path-4"></use>
                            <mask id="mask-7" fill="white">
                                <use xlink:href="#path-6"></use>
                            </mask>
                            <use id="Mask" stroke="none" fill="#FFFFFF" fill-rule="evenodd" xlink:href="#path-6"></use>
                            <mask id="mask-9" fill="white">
                                <use xlink:href="#path-8"></use>
                            </mask>
                            <use id="Mask-Copy" stroke="none" fill="#FFFFFF" fill-rule="evenodd" transform="translate(76.500000, 51.000000) rotate(60.000000) translate(-76.500000, -51.000000) " xlink:href="#path-8"></use>
                        </g>
                    </g>
                </g>
                <g id="inner" transform="translate(21.000000, 20.000000)">
                    <g>
                        <mask id="mask-11" fill="white">
                            <use xlink:href="#path-10"></use>
                        </mask>
                        <g id="Combined-Shape">
                            <use fill="#D40000" fill-rule="evenodd" xlink:href="#path-10"></use>
                            <use fill="black" fill-opacity="1" filter="url(#filter-12)" xlink:href="#path-10"></use>
                        </g>
                        <g id="stripes" mask="url(#mask-11)" fill="#FFFFFF">
                            <g transform="translate(-5.000000, -5.000000)">
                                <rect id="Rectangle" x="53" y="0" width="15" height="120"></rect>
                                <rect id="Rectangle-Copy" transform="translate(60.500000, 60.000000) rotate(30.000000) translate(-60.500000, -60.000000) " x="53" y="0" width="15" height="120"></rect>
                                <rect id="Rectangle-Copy-2" transform="translate(60.500000, 60.000000) rotate(60.000000) translate(-60.500000, -60.000000) " x="53" y="0" width="15" height="120"></rect>
                                <rect id="Rectangle-Copy-3" transform="translate(60.500000, 60.000000) rotate(90.000000) translate(-60.500000, -60.000000) " x="53" y="0" width="15" height="120"></rect>
                                <rect id="Rectangle-Copy-4" transform="translate(60.500000, 60.000000) rotate(120.000000) translate(-60.500000, -60.000000) " x="53" y="0" width="15" height="120"></rect>
                                <rect id="Rectangle-Copy-5" transform="translate(60.500000, 60.000000) rotate(150.000000) translate(-60.500000, -60.000000) " x="53" y="0" width="15" height="120"></rect>
                            </g>
                        </g>
                    </g>
                    <circle id="oval-copy" fill="#D40000" cx="55" cy="55" r="50"></circle>
                </g>
                <g id="pips" transform="translate(32.000000, 7.000000)">
                    <g id="h/d" transform="translate(44.000000, 69.366025) rotate(30.000000) translate(-44.000000, -69.366025) translate(36.500000, -4.133975)" fill="#FFFFFF">
                        <path d="M7.49997974,16 C7.49997974,16 5.64605518,13.4481765 3.14520578,10.4479129 C1.47217306,8.44015947 0.134620302,6.26613599 0.0102651622,4.39354919 C-0.132365812,2.25444571 1.21774165,0.108422223 3.66201462,0.00441221565 C6.10481837,-0.0995377916 7.09636189,1.65375566 7.49997974,3.09928243 C7.90363733,1.65375566 8.89518083,-0.0995377916 11.3379846,0.00441221565 C13.7822584,0.108422223 15.1323658,2.25444571 14.9897348,4.39354919 C14.8653797,6.26613599 13.5278269,8.44015947 11.8547934,10.4479129 C9.35394403,13.4481765 7.49997974,16 7.49997974,16 Z" id="heart"></path>
                        <path d="M7.50001861,147 C5.56940774,143.7882 3.53824964,140.666587 1,138 C3.53824964,135.33345 5.56940774,132.211837 7.50001861,129 C9.43062949,132.211837 11.4617504,135.33345 14,138 C11.4617504,140.666587 9.43062949,143.7882 7.50001861,147 Z" id="diamond"></path>
                    </g>
                    <g id="c/s" transform="translate(44.500000, 68.500000) rotate(-30.000000) translate(-44.500000, -68.500000) translate(36.000000, -5.000000)"></g>
                    <path d="M12,3.70834875 C8.4078652,8.36816209 4.5643277,11.0497173 4.50047444,14.6851531 C4.47906024,15.8623677 5.17875951,17.8632394 7.37040559,18.246221 C8.79230851,18.4935463 10.7499947,17.4466969 10.7908764,15.3199119 C10.7846468,14.8964879 11.2837534,14.9074919 11.2790812,15.4876877 C11.2121132,17.165276 10.6283231,19.1184485 9.64716339,20.7083488 C11.2157341,20.7083488 12.7842659,20.7083488 14.3528366,20.7083488 C13.3716769,19.1184485 12.7878868,17.165276 12.7209188,15.4876877 C12.7162466,14.9074919 13.2153532,14.8964879 13.2091236,15.3199119 C13.2500053,17.4466969 15.2076915,18.4935463 16.6295944,18.246221 C18.8212405,17.8632394 19.5209398,15.8623677 19.4995256,14.6851531 C19.4356723,11.0497173 15.5921348,8.36816209 12,3.70834875 Z" id="spade" fill="#FFFFFF" transform="translate(12.000000, 12.208349) rotate(-30.000000) translate(-12.000000, -12.208349) "></path>
                    <path d="M74.3731872,123.313607 C74.7715935,123.756503 74.8126902,124.010669 74.0830439,123.585247 C72.2335794,122.427246 68.6872737,123.188505 68.505659,126.728713 C68.2813538,131.090748 74.7907947,132.347569 76.012994,127.709229 C76.077542,127.219849 76.5022836,127.231016 76.3999024,127.925669 C76.2884519,129.811053 75.659593,131.573232 74.7952345,133.291645 C76.2520606,133.291645 77.8801798,133.291645 79.2047603,133.291645 C78.3404398,131.573232 77.7115809,129.811053 77.6001304,127.925669 C77.4977112,127.231016 77.9224908,127.219849 77.9870008,127.709229 C79.2092381,132.347569 85.7186789,131.090748 85.4943358,126.728713 C85.3127971,123.188505 81.7664534,122.427246 79.916951,123.585247 C79.1873046,124.010669 79.2284393,123.756503 79.6268456,123.313607 C82.3738342,120.277183 80.7106519,116.367072 77.0015532,116.291652 C73.2893808,116.367068 71.6261986,120.277183 74.3731872,123.313607 Z" id="club" fill="#FFFFFF" transform="translate(76.999998, 124.791648) rotate(150.000000) translate(-76.999998, -124.791648) "></path>
                </g>
                <path d="M53.309672,96.3683247 C48.85099,96.3683247 44.8321007,95.4162164 41.2528835,93.5119711 C37.6736663,91.6077259 34.8716925,88.9843635 32.8468782,85.6418054 C30.8220639,82.2992473 29.809672,78.5414579 29.809672,74.3683247 C29.809672,70.1951915 30.8220639,66.4374022 32.8468782,63.0948441 C34.8716925,59.7522859 37.6736663,57.1289236 41.2528835,55.2246783 C44.8321007,53.3204331 48.85099,52.3683247 53.309672,52.3683247 C57.768354,52.3683247 61.7770171,53.3204331 65.3357816,55.2246783 C68.8945462,57.1289236 71.6965199,59.7522859 73.7417868,63.0948441 C75.7870538,66.4374022 76.809672,70.1951915 76.809672,74.3683247 C76.809672,78.5414579 75.7870538,82.2992473 73.7417868,85.6418054 C71.6965199,88.9843635 68.8945462,91.6077259 65.3357816,93.5119711 C61.7770171,95.4162164 57.768354,96.3683247 53.309672,96.3683247 Z M53.309672,88.3683247 C55.8576299,88.3683247 58.1589768,87.7745807 60.2137816,86.5870747 C62.2685863,85.3995688 63.8815839,83.7433354 65.0528226,81.6183247 C66.2240614,79.4933141 66.809672,77.0766716 66.809672,74.3683247 C66.809672,71.6599779 66.2240614,69.2433354 65.0528226,67.1183247 C63.8815839,64.9933141 62.2685863,63.3370807 60.2137816,62.1495747 C58.1589768,60.9620688 55.8576299,60.3683247 53.309672,60.3683247 C50.761714,60.3683247 48.4603672,60.9620688 46.4055624,62.1495747 C44.3507576,63.3370807 42.73776,64.9933141 41.5665213,67.1183247 C40.3952825,69.2433354 39.809672,71.6599779 39.809672,74.3683247 C39.809672,77.0766716 40.3952825,79.4933141 41.5665213,81.6183247 C42.73776,83.7433354 44.3507576,85.3995688 46.4055624,86.5870747 C48.4603672,87.7745807 50.761714,88.3683247 53.309672,88.3683247 Z M109.355324,95.3785713 L101.08113,83.3999998 L91.9488723,83.3999998 L91.9488723,95.3785713 L82.0198401,95.3785713 L82.0198401,52.3785713 L100.590808,52.3785713 C104.390827,52.3785713 107.690256,53.0133268 110.489195,54.282857 C113.288134,55.5523871 115.443488,57.3542739 116.955324,59.6885713 C118.467159,62.0228686 119.223066,64.7871267 119.223066,67.9814284 C119.223066,71.1757301 118.456945,73.9297502 116.924679,76.2435713 C115.392413,78.5573924 113.216628,80.3285651 110.397259,81.5571427 L120.01984,95.3785713 L109.355324,95.3785713 Z M109.392669,67.9114399 C109.392669,65.493395 108.58129,63.6389054 106.958506,62.3479153 C105.335722,61.0569252 102.965639,60.4114399 99.8481853,60.4114399 L91.3926693,60.4114399 L91.3926693,75.4114399 L99.8481853,75.4114399 C102.965639,75.4114399 105.335722,74.7557087 106.958506,73.4442268 C108.58129,72.1327448 109.392669,70.288501 109.392669,67.9114399 Z" id="OR" fill="#FFFFFF"></path>
                <mask id="mask-14" fill="white">
                    <use xlink:href="#path-13"></use>
                </mask>
                <circle stroke="#000000" stroke-width="1.5" cx="75.8994898" cy="75.0010153" r="74.25"></circle>
            </g>
            <g id="better" transform="translate(39.000000, 117.000000)">
                <rect id="Rectangle" stroke="#000000" stroke-width="1.5" fill="url(#linearGradient-15)" x="0.75" y="0.75" width="364.5" height="88.5" rx="20"></rect>
                <path d="M74.797018,43.92 C77.8940777,44.8971477 80.3200714,46.5299886 82.0750719,48.8185714 C83.8300724,51.1071543 84.7075595,53.9228404 84.7075595,57.2657143 C84.7075595,61.9971665 82.8622558,65.6357016 79.171593,68.1814286 C75.4809302,70.7271556 70.0998697,72 63.0282501,72 L35,72 L35,18 L61.479728,18 C68.0867886,18 73.1581478,19.2599874 76.6939576,21.78 C80.2297674,24.3000126 81.9976458,27.7199784 81.9976458,32.04 C81.9976458,34.6628703 81.365339,37.0028469 80.1007063,39.06 C78.8360735,41.1171531 77.0681952,42.7371369 74.797018,43.92 Z M47.4656029,27.4114286 L47.4656029,40.14 L59.9312059,40.14 C63.0282656,40.14 65.3768339,39.6000054 66.9769814,38.52 C68.5771289,37.4399946 69.3771907,35.8457248 69.3771907,33.7371429 C69.3771907,31.6285609 68.5771289,30.0471481 66.9769814,28.9928571 C65.3768339,27.9385662 63.0282656,27.4114286 59.9312059,27.4114286 L47.4656029,27.4114286 Z M62.0991368,62.5885714 C65.4026671,62.5885714 67.893182,62.0485768 69.570756,60.9685714 C71.24833,59.888566 72.0871044,58.2171542 72.0871044,55.9542857 C72.0871044,51.4799776 68.7578151,49.2428571 62.0991368,49.2428571 L47.4656029,49.2428571 L47.4656029,62.5885714 L62.0991368,62.5885714 Z M134.260267,61.9714286 L134.260267,72 L92.2953178,72 L92.2953178,18 L133.253727,18 L133.253727,28.0285714 L104.760921,28.0285714 L104.760921,39.7542857 L129.924405,39.7542857 L129.924405,49.4742857 L104.760921,49.4742857 L104.760921,61.9714286 L134.260267,61.9714286 Z M183.425844,18 L230.113785,18 L230.113785,28.1828571 L212.770337,28.1828571 L212.770337,72 L200.227308,72 L200.227308,28.1828571 L183.425844,28.1828571 L166.082396,28.1828571 L166.082396,72 L153.539367,72 L153.539367,28.1828571 L136.195919,28.1828571 L136.195919,18 L183.425844,18 Z M274.9435,61.9714286 L274.9435,72 L232.978551,72 L232.978551,18 L273.936961,18 L273.936961,28.0285714 L245.444154,28.0285714 L245.444154,39.7542857 L270.607638,39.7542857 L270.607638,49.4742857 L245.444154,49.4742857 L245.444154,61.9714286 L274.9435,61.9714286 Z M317.527858,72 L307.075334,56.9571429 L295.538844,56.9571429 L295.538844,72 L282.995815,72 L282.995815,18 L306.455925,18 C311.256367,18 315.424431,18.7971349 318.960241,20.3914286 C322.49605,21.9857223 325.218841,24.2485568 327.128695,27.18 C329.038548,30.1114432 329.993461,33.5828371 329.993461,37.5942857 C329.993461,41.6057343 329.025644,45.0642712 327.089982,47.97 C325.154319,50.8757288 322.40572,53.0999923 318.844101,54.6428571 L331,72 L317.527858,72 Z M317.295579,37.5942857 C317.295579,34.5599848 316.314859,32.2328652 314.353387,30.6128571 C312.391916,28.992849 309.527179,28.1828571 305.75909,28.1828571 L295.538844,28.1828571 L295.538844,47.0057143 L305.75909,47.0057143 C309.527179,47.0057143 312.391916,46.1828654 314.353387,44.5371429 C316.314859,42.8914203 317.295579,40.5771578 317.295579,37.5942857 Z" id="BETTER" fill="#000000"></path>
            </g>
        </g>
    </g>
</svg>