<?xml version="1.0" encoding="UTF-8"?>
<svg class="card-face" width="250px" height="350px" viewBox="0 0 250 350" preserveAspectRatio="none" version="1.1" xmlns="http://www.w3.org/2000/svg" xmlns:xlink="http://www.w3.org/1999/xlink">
    <title>queen</title>
    <g id="queen" stroke="none" stroke-width="1" fill="none" fill-rule="evenodd">
        <g id="Group" transform="translate(125.000000, -125.000000)" fill="currentColor">
            <polygon id="Star-Copy-6" style="mix-blend-mode: multiply;" points="124.886878 168.597285 36.5785196 213.195236 81.1764706 124.886878 36.5785196 36.5785196 124.886878 81.1764706 213.195236 36.5785196 168.597285 124.886878 213.195236 213.195236"></polygon>
            <polygon id="Star-Copy-17" style="mix-blend-mode: multiply;" transform="translate(124.886878, 124.886878) rotate(-45.000000) translate(-124.886878, -124.886878) " points="124.886878 168.597285 36.5785196 213.195236 81.1764706 124.886878 36.5785196 36.5785196 124.886878 81.1764706 213.195236 36.5785196 168.597285 124.886878 213.195236 213.195236"></polygon>
        </g>
        <g id="Group-2" transform="translate(-125.000000, 226.000000)" fill="currentColor">
            <polygon id="Star-Copy-7" style="mix-blend-mode: multiply;" points="124.886878 168.597285 36.5785196 213.195236 81.1764706 124.886878 36.5785196 36.5785196 124.886878 81.1764706 213.195236 36.5785196 168.597285 124.886878 213.195236 213.195236"></polygon>
            <polygon id="Star-Copy-18" style="mix-blend-mode: multiply;" transform="translate(124.886878, 124.886878) rotate(-45.000000) translate(-124.886878, -124.886878) " points="124.886878 168.597285 36.5785196 213.195236 81.1764706 124.886878 36.5785196 36.5785196 124.886878 81.1764706 213.195236 36.5785196 168.597285 124.886878 213.195236 213.195236"></polygon>
        </g>
    </g>
</svg>