<?xml version="1.0" encoding="UTF-8"?>
<svg width="100px" height="100px" viewBox="0 0 100 100" version="1.1" xmlns="http://www.w3.org/2000/svg" xmlns:xlink="http://www.w3.org/1999/xlink">
    <title>spades</title>
    <g id="suit-spades" stroke="none" stroke-width="1" fill="none" fill-rule="evenodd">
        <path d="M50.2109705,0 C60.1969058,10.6939704 60.1969058,10.6939704 75.9493671,26.9624573 C86.4978903,37.7701934 91.4205345,43.5722412 94.7960619,48.9192264 C97.8902954,53.6973834 100,60.182025 100,64.5051195 C100,71.6723549 95.9212377,78.6120592 89.7327707,82.0250284 C85.6540084,84.3003413 80.8720113,85.4379977 75.8087201,85.4379977 C65.4008439,85.4379977 58.3684951,81.0011377 55.9774965,72.923777 C55.4149086,70.7622298 54.9929677,70.0796359 54.2897328,70.0796359 C53.5864979,70.0796359 53.164557,70.8759954 53.164557,71.8998862 C53.164557,74.7440273 54.8523207,81.3424346 56.6807314,85.665529 C59.07173,90.8987486 61.7440225,94.6530148 67.2292546,100 C58.0872011,98.8623436 54.1490858,98.5210466 50.2109705,98.5210466 C44.1631505,98.5210466 39.5218003,98.8623436 32.4894515,100 C38.1153305,95.221843 41.068917,91.3538111 43.6005626,84.8691695 C45.0070323,81.1149033 46.835443,73.7201365 46.835443,71.5585893 C46.835443,70.6484642 46.4135021,70.0796359 45.7102672,70.0796359 C45.2883263,70.0796359 45.0070323,70.3071672 44.8663854,70.7622298 C43.3192686,74.8577929 41.7721519,77.3606371 38.9592124,80.4323094 C36.0056259,83.7315131 30.9423347,85.4379977 24.1912799,85.4379977 C9.84528833,85.4379977 0,76.7918089 0,64.1638225 C0,57.2241183 2.67229255,51.3083049 9.9859353,42.0932878 C14.4866385,36.5187713 14.4866385,36.5187713 37.5527426,13.5381115 C44.1631505,6.93970421 45.8509142,5.11945392 50.2109705,0 Z" fill="currentColor"></path>
    </g>
</svg>